<?xml version="1.0" encoding="utf-8"?>
<!-- Generator: Adobe Illustrator 22.1.0, SVG Export Plug-In . SVG Version: 6.00 Build 0)  -->
<svg version="1.1" id="Layer_1" xmlns="http://www.w3.org/2000/svg" xmlns:xlink="http://www.w3.org/1999/xlink" x="0px" y="0px"
	 viewBox="0 0 500 500" style="enable-background:new 0 0 500 500;" xml:space="preserve">
<style type="text/css">
	.st0{fill:#DBC81B;}
	.st1{fill:#292B37;}
	.st2{fill:#DAE8F3;}
	.st3{fill:#3F434F;}
	.st4{fill:#FDFEFF;}
	.st5{fill:#D8D3B6;}
	.st6{fill:#C4BC95;}
	.st7{fill:#FFFFFF;}
	.st8{fill:#19B2B8;}
	.st9{fill:#C0D4D3;}
	.st10{fill:#2B5E76;}
	.st11{fill:#F06443;}
	.st12{opacity:0.1;}
	.st13{fill:#FEFEFF;}
</style>
<rect x="0.3" class="st0" width="500" height="500"/>
<g>
	<path class="st1" d="M404.6,394.9H88.4c-2,0-3.7-1.7-3.7-3.7v0c0-2,1.7-3.7,3.7-3.7h316.1c2,0,3.7,1.7,3.7,3.7l0,0
		C408.2,393.2,406.6,394.9,404.6,394.9z"/>
	<path class="st2" d="M404.1,391H88.9c-3.2,0-4.9-1.3-3.8-2.9l44.4-63.9h233.9l44.4,63.9C409,389.6,407.3,391,404.1,391z"/>
	<path class="st3" d="M279.9,385.8h-66.9c-1.9,0-3.2-0.7-3.1-1.7l2.2-14c0.1-0.8,1.6-1.4,3.3-1.4h61.9c1.7,0,3.2,0.6,3.3,1.4l2.2,14
		C283.2,385.1,281.8,385.8,279.9,385.8z"/>
	<g>
		<polygon class="st4" points="161.7,329.7 148.1,329.7 149.5,327.3 162.8,327.3 		"/>
		<polygon class="st4" points="178.3,329.7 164.7,329.7 165.8,327.3 179.2,327.3 		"/>
		<polygon class="st4" points="194.9,329.7 181.3,329.7 182.2,327.3 195.6,327.3 		"/>
		<polygon class="st4" points="211.4,329.7 197.9,329.7 198.6,327.3 211.9,327.3 		"/>
		<polygon class="st4" points="228,329.7 214.5,329.7 214.9,327.3 228.3,327.3 		"/>
		<polygon class="st4" points="244.6,329.7 231.1,329.7 231.3,327.3 244.7,327.3 		"/>
		<polygon class="st4" points="261.2,329.7 247.7,329.7 247.7,327.3 261,327.3 		"/>
		<polygon class="st4" points="277.8,329.7 264.3,329.7 264,327.3 277.4,327.3 		"/>
		<polygon class="st4" points="294.4,329.7 280.9,329.7 280.4,327.3 293.8,327.3 		"/>
		<polygon class="st4" points="311,329.7 297.5,329.7 296.8,327.3 310.1,327.3 		"/>
		<polygon class="st4" points="327.6,329.7 314.1,329.7 313.1,327.3 326.5,327.3 		"/>
		<polygon class="st4" points="344.8,329.7 331.3,329.7 330.1,327.3 343.5,327.3 		"/>
	</g>
	<path class="st1" d="M356.1,181.9H136.9c-4,0-7.2,3.3-7.2,7.3v135h233.6v-135C363.3,185.1,360.1,181.9,356.1,181.9z"/>
	<rect x="139.5" y="193.7" class="st4" width="214.1" height="117.7"/>
	<g>
		<g>
			<polygon class="st3" points="144.7,364.4 128.4,364.4 132.6,357.1 148.3,357.1 			"/>
			<polygon class="st3" points="164.6,364.4 148.3,364.4 151.8,357.1 167.5,357.1 			"/>
			<polygon class="st3" points="184.5,364.4 168.3,364.4 171,357.1 186.7,357.1 			"/>
			<polygon class="st3" points="324,364.4 307.7,364.4 305.6,357.1 321.3,357.1 			"/>
			<polygon class="st3" points="304.1,364.4 287.8,364.4 286.4,357.1 302,357.1 			"/>
			<polygon class="st3" points="284.1,364.4 188.2,364.4 190.2,357.1 282.8,357.1 			"/>
			<polygon class="st3" points="343.9,364.4 327.7,364.4 324.8,357.1 340.5,357.1 			"/>
			<polygon class="st3" points="364.6,364.4 348.3,364.4 344.8,357.1 360.4,357.1 			"/>
		</g>
		<g>
			<polygon class="st3" points="144.4,365 128.1,365 132.3,357.6 148,357.6 			"/>
			<polygon class="st3" points="164.4,365 148.1,365 151.5,357.6 167.3,357.6 			"/>
			<polygon class="st3" points="184.3,365 168,365 170.8,357.6 186.5,357.6 			"/>
			<polygon class="st3" points="324.2,365 307.9,365 305.7,357.6 321.5,357.6 			"/>
			<polygon class="st3" points="304.2,365 287.9,365 286.5,357.6 302.2,357.6 			"/>
			<polygon class="st3" points="284.3,365 188,365 190.1,357.6 282.9,357.6 			"/>
			<polygon class="st3" points="344.2,365 327.9,365 325,357.6 340.7,357.6 			"/>
			<polygon class="st3" points="364.9,365 348.6,365 345,357.6 360.7,357.6 			"/>
		</g>
	</g>
	<g>
		<g>
			<g>
				<polygon class="st3" points="187.4,354.8 134,354.8 137.8,348.1 189.4,348.1 				"/>
			</g>
			<g>
				<polygon class="st3" points="206.4,354.8 190.9,354.8 192.8,348.1 207.7,348.1 				"/>
			</g>
			<g>
				<polygon class="st3" points="225.4,354.8 209.9,354.8 211.1,348.1 226.1,348.1 				"/>
			</g>
			<g>
				<polygon class="st3" points="244.4,354.8 228.9,354.8 229.5,348.1 244.5,348.1 				"/>
			</g>
			<g>
				<polygon class="st3" points="263.4,354.8 247.9,354.8 247.9,348.1 262.8,348.1 				"/>
			</g>
			<g>
				<polygon class="st3" points="282.4,354.8 266.9,354.8 266.2,348.1 281.2,348.1 				"/>
			</g>
			<g>
				<polygon class="st3" points="301.4,354.8 285.9,354.8 284.6,348.1 299.6,348.1 				"/>
			</g>
			<g>
				<polygon class="st3" points="359.1,354.8 304.9,354.8 302.9,348.1 355.3,348.1 				"/>
			</g>
		</g>
		<g>
			<g>
				<polygon class="st3" points="187.2,355.3 133.7,355.3 137.5,348.6 189.2,348.6 				"/>
			</g>
			<g>
				<polygon class="st3" points="206.2,355.3 190.7,355.3 192.6,348.6 207.6,348.6 				"/>
			</g>
			<g>
				<polygon class="st3" points="225.3,355.3 209.7,355.3 211,348.6 226,348.6 				"/>
			</g>
			<g>
				<polygon class="st3" points="244.4,355.3 228.8,355.3 229.4,348.6 244.4,348.6 				"/>
			</g>
			<g>
				<polygon class="st3" points="263.4,355.3 247.9,355.3 247.8,348.6 262.8,348.6 				"/>
			</g>
			<g>
				<polygon class="st3" points="282.5,355.3 266.9,355.3 266.2,348.6 281.2,348.6 				"/>
			</g>
			<g>
				<polygon class="st3" points="301.5,355.3 286,355.3 284.6,348.6 299.7,348.6 				"/>
			</g>
			<g>
				<polygon class="st3" points="359.3,355.3 305,355.3 303.1,348.6 355.5,348.6 				"/>
			</g>
		</g>
	</g>
	<g>
		<g>
			<g>
				<polygon class="st3" points="157.6,338 143.4,338 146.6,332.4 160.3,332.4 				"/>
			</g>
			<g>
				<polygon class="st3" points="175,338 160.8,338 163.4,332.4 177.2,332.4 				"/>
			</g>
			<g>
				<polygon class="st3" points="192.4,338 178.2,338 180.3,332.4 194.1,332.4 				"/>
			</g>
			<g>
				<polygon class="st3" points="209.8,338 195.6,338 197.2,332.4 210.9,332.4 				"/>
			</g>
			<g>
				<polygon class="st3" points="227.2,338 213,338 214,332.4 227.8,332.4 				"/>
			</g>
			<g>
				<polygon class="st3" points="244.6,338 230.4,338 230.9,332.4 244.6,332.4 				"/>
			</g>
			<g>
				<polygon class="st3" points="262,338 247.8,338 247.7,332.4 261.5,332.4 				"/>
			</g>
			<g>
				<polygon class="st3" points="279.4,338 265.2,338 264.6,332.4 278.4,332.4 				"/>
			</g>
			<g>
				<polygon class="st3" points="296.8,338 282.6,338 281.5,332.4 295.2,332.4 				"/>
			</g>
			<g>
				<polygon class="st3" points="314.2,338 300,338 298.3,332.4 312.1,332.4 				"/>
			</g>
			<g>
				<polygon class="st3" points="331.6,338 317.4,338 315.2,332.4 328.9,332.4 				"/>
			</g>
			<g>
				<polygon class="st3" points="349.6,338 335.4,338 332.7,332.4 346.4,332.4 				"/>
			</g>
		</g>
		<g>
			<g>
				<polygon class="st3" points="157.4,338.4 143.1,338.4 146.3,332.8 160.1,332.8 				"/>
			</g>
			<g>
				<polygon class="st3" points="174.8,338.4 160.6,338.4 163.2,332.8 177,332.8 				"/>
			</g>
			<g>
				<polygon class="st3" points="192.3,338.4 178,338.4 180.1,332.8 193.9,332.8 				"/>
			</g>
			<g>
				<polygon class="st3" points="209.7,338.4 195.5,338.4 197,332.8 210.8,332.8 				"/>
			</g>
			<g>
				<polygon class="st3" points="227.1,338.4 212.9,338.4 213.9,332.8 227.7,332.8 				"/>
			</g>
			<g>
				<polygon class="st3" points="244.6,338.4 230.3,338.4 230.8,332.8 244.6,332.8 				"/>
			</g>
			<g>
				<polygon class="st3" points="262,338.4 247.8,338.4 247.7,332.8 261.5,332.8 				"/>
			</g>
			<g>
				<polygon class="st3" points="279.5,338.4 265.2,338.4 264.6,332.8 278.4,332.8 				"/>
			</g>
			<g>
				<polygon class="st3" points="296.9,338.4 282.7,338.4 281.5,332.8 295.3,332.8 				"/>
			</g>
			<g>
				<polygon class="st3" points="314.3,338.4 300.1,338.4 298.4,332.8 312.2,332.8 				"/>
			</g>
			<g>
				<polygon class="st3" points="331.8,338.4 317.5,338.4 315.3,332.8 329.1,332.8 				"/>
			</g>
			<g>
				<polygon class="st3" points="349.9,338.4 335.6,338.4 332.9,332.8 346.7,332.8 				"/>
			</g>
		</g>
	</g>
	<g>
		<g>
			<g>
				<polygon class="st3" points="171,346 138.8,346 142.3,339.9 173.4,339.9 				"/>
			</g>
			<g>
				<polygon class="st3" points="190,346 175.2,346 177.5,339.9 191.8,339.9 				"/>
			</g>
			<g>
				<polygon class="st3" points="208.2,346 193.3,346 195.1,339.9 209.4,339.9 				"/>
			</g>
			<g>
				<polygon class="st3" points="226.3,346 211.5,346 212.6,339.9 227,339.9 				"/>
			</g>
			<g>
				<polygon class="st3" points="244.5,346 229.7,346 230.2,339.9 244.6,339.9 				"/>
			</g>
			<g>
				<polygon class="st3" points="262.7,346 247.8,346 247.8,339.9 262.1,339.9 				"/>
			</g>
			<g>
				<polygon class="st3" points="280.8,346 266,346 265.4,339.9 279.7,339.9 				"/>
			</g>
			<g>
				<polygon class="st3" points="299,346 284.2,346 283,339.9 297.3,339.9 				"/>
			</g>
			<g>
				<polygon class="st3" points="317.2,346 302.3,346 300.5,339.9 314.9,339.9 				"/>
			</g>
			<g>
				<polygon class="st3" points="354.2,346 320.5,346 318.1,339.9 350.7,339.9 				"/>
			</g>
		</g>
		<g>
			<g>
				<polygon class="st3" points="170.8,346.5 138.6,346.5 142.1,340.4 173.2,340.4 				"/>
			</g>
			<g>
				<polygon class="st3" points="189.8,346.5 175,346.5 177.3,340.4 191.7,340.4 				"/>
			</g>
			<g>
				<polygon class="st3" points="208.1,346.5 193.2,346.5 194.9,340.4 209.3,340.4 				"/>
			</g>
			<g>
				<polygon class="st3" points="226.3,346.5 211.4,346.5 212.5,340.4 226.9,340.4 				"/>
			</g>
			<g>
				<polygon class="st3" points="244.5,346.5 229.6,346.5 230.2,340.4 244.6,340.4 				"/>
			</g>
			<g>
				<polygon class="st3" points="262.7,346.5 247.8,346.5 247.8,340.4 262.2,340.4 				"/>
			</g>
			<g>
				<polygon class="st3" points="280.9,346.5 266.1,346.5 265.4,340.4 279.8,340.4 				"/>
			</g>
			<g>
				<polygon class="st3" points="299.1,346.5 284.3,346.5 283,340.4 297.4,340.4 				"/>
			</g>
			<g>
				<polygon class="st3" points="317.3,346.5 302.5,346.5 300.7,340.4 315,340.4 				"/>
			</g>
			<g>
				<polygon class="st3" points="354.4,346.5 320.7,346.5 318.3,340.4 351,340.4 				"/>
			</g>
		</g>
	</g>
	<g>
		<polygon class="st3" points="161.5,330.1 147.9,330.1 149.3,327.6 162.7,327.6 		"/>
		<polygon class="st3" points="178.1,330.1 164.5,330.1 165.7,327.6 179.1,327.6 		"/>
		<polygon class="st3" points="194.8,330.1 181.2,330.1 182.1,327.6 195.5,327.6 		"/>
		<polygon class="st3" points="211.4,330.1 197.8,330.1 198.5,327.6 211.9,327.6 		"/>
		<polygon class="st3" points="228,330.1 214.5,330.1 214.9,327.6 228.3,327.6 		"/>
		<polygon class="st3" points="244.7,330.1 231.1,330.1 231.3,327.6 244.7,327.6 		"/>
		<polygon class="st3" points="261.3,330.1 247.7,330.1 247.7,327.6 261.1,327.6 		"/>
		<polygon class="st3" points="277.9,330.1 264.4,330.1 264.1,327.6 277.5,327.6 		"/>
		<polygon class="st3" points="294.6,330.1 281,330.1 280.5,327.6 293.9,327.6 		"/>
		<polygon class="st3" points="311.2,330.1 297.6,330.1 296.9,327.6 310.3,327.6 		"/>
		<polygon class="st3" points="327.8,330.1 314.3,330.1 313.3,327.6 326.7,327.6 		"/>
		<polygon class="st3" points="345.1,330.1 331.5,330.1 330.3,327.6 343.7,327.6 		"/>
	</g>
	<g>
		<rect x="327" y="320.7" class="st4" width="23.2" height="4.2"/>
		<rect x="142.7" y="320.7" class="st4" width="23.2" height="4.2"/>
	</g>
	<rect x="139.5" y="193.7" class="st5" width="214.1" height="117.7"/>
	<rect x="173.8" y="193.6" class="st6" width="155" height="112"/>
	<rect x="168.1" y="153.4" class="st7" width="154.8" height="147.4"/>
	<rect x="176.3" y="178.8" class="st8" width="138.3" height="114.4"/>
	<rect x="218.9" y="161.2" class="st9" width="95.7" height="8"/>
	
		<ellipse transform="matrix(0.1602 -0.9871 0.9871 0.1602 -11.4469 317.1548)" class="st9" cx="180.7" cy="165.3" rx="4.1" ry="4.1"/>
	
		<ellipse transform="matrix(0.2298 -0.9732 0.9732 0.2298 -12.6191 314.9269)" class="st9" cx="192.7" cy="165.4" rx="4.1" ry="4.1"/>
	
		<ellipse transform="matrix(0.7071 -0.7071 0.7071 0.7071 -57.1343 193.2001)" class="st9" cx="204.6" cy="165.6" rx="4.1" ry="4.1"/>
	<circle class="st10" cx="202.7" cy="207.7" r="18.8"/>
	<path class="st7" d="M208.6,200c0,0.1,0,0.2,0,0.3c0,0.1,0,0.2,0,0.3c0,0.2,0,0.3-0.1,0.5c0,0.2-0.1,0.3-0.1,0.5
		c-0.1,0.3-0.2,0.6-0.3,0.9c0,0,0,0.1-0.1,0.1c-0.1,0.1-0.1,0.3-0.2,0.4c0,0,0,0.1-0.1,0.1c-0.3,0.5-0.6,0.9-1,1.3
		c0,0-0.1,0.1-0.1,0.1c-0.1,0.1-0.1,0.1-0.2,0.2c0,0-0.1,0.1-0.1,0.1c-0.1,0.1-0.2,0.2-0.3,0.2c0,0,0,0,0,0
		c-0.1,0.1-0.3,0.2-0.4,0.3c-0.1,0.1-0.3,0.1-0.4,0.2c0,0,0,0,0,0c-0.3,0.1-0.6,0.2-0.9,0.3c-0.1,0-0.1,0-0.2,0.1
		c-0.3,0.1-0.6,0.1-1,0.1c-0.1,0-0.2,0-0.3,0c-0.1,0-0.1,0-0.2,0c-0.1,0-0.1,0-0.2,0c-0.1,0-0.2,0-0.3,0c-0.3,0-0.6-0.1-1-0.1
		c-0.1,0-0.1,0-0.2-0.1c-0.3-0.1-0.6-0.2-0.9-0.3c0,0,0,0,0,0c-0.1-0.1-0.3-0.1-0.4-0.2c-0.2-0.1-0.3-0.2-0.5-0.3c0,0,0,0,0,0
		c-0.1-0.1-0.2-0.2-0.3-0.2c0,0-0.1-0.1-0.1-0.1c-0.1-0.1-0.1-0.1-0.2-0.2c-0.1-0.1-0.1-0.1-0.2-0.2c-0.4-0.4-0.7-0.8-0.9-1.2
		c0,0,0-0.1-0.1-0.1c-0.1-0.1-0.1-0.3-0.2-0.4c0,0,0-0.1-0.1-0.1c-0.1-0.3-0.2-0.6-0.3-0.9c0-0.2-0.1-0.3-0.1-0.5
		c0-0.2,0-0.3-0.1-0.5c0-0.1,0-0.2,0-0.3c0-0.1,0-0.2,0-0.3c0-0.1,0-0.2,0-0.3c0-0.1,0-0.1,0-0.2v0c0,0,0-0.1,0-0.1c0,0,0-0.1,0-0.1
		c0-0.1,0-0.2,0.1-0.3c0-0.2,0.1-0.3,0.1-0.5c0.1-0.3,0.2-0.6,0.3-0.9c0,0,0,0,0-0.1c0,0,0,0,0-0.1c0.1-0.1,0.1-0.3,0.2-0.4
		c0,0,0-0.1,0.1-0.1c0.3-0.5,0.6-0.9,1-1.3c0,0,0.1-0.1,0.1-0.1c0.1-0.1,0.1-0.1,0.2-0.2c0,0,0.1-0.1,0.1-0.1
		c0.1-0.1,0.2-0.2,0.3-0.2c0,0,0,0,0,0c0.3-0.2,0.6-0.3,0.9-0.5c0,0,0,0,0,0c0.3-0.1,0.6-0.2,0.9-0.3c0.1,0,0.1,0,0.2-0.1
		c0.3-0.1,0.6-0.1,1-0.1c0.1,0,0.2,0,0.3,0c0.1,0,0.1,0,0.2,0c0.1,0,0.1,0,0.2,0c0.1,0,0.2,0,0.3,0c0.3,0,0.6,0.1,1,0.1
		c0.1,0,0.1,0,0.2,0.1c0.3,0.1,0.6,0.2,0.9,0.3c0,0,0,0,0,0c0.3,0.1,0.6,0.3,0.9,0.5c0,0,0,0,0,0c0.1,0.1,0.2,0.2,0.3,0.2
		c0,0,0.1,0.1,0.1,0.1c0.1,0.1,0.1,0.1,0.2,0.2c0,0,0.1,0.1,0.1,0.1c0.4,0.4,0.8,0.8,1,1.3c0,0,0,0.1,0.1,0.1
		c0.1,0.1,0.1,0.3,0.2,0.4c0,0,0,0.1,0.1,0.1c0.1,0.3,0.2,0.6,0.3,0.9c0,0.2,0.1,0.3,0.1,0.5c0,0.2,0,0.3,0.1,0.5c0,0,0,0.1,0,0.1
		c0,0.1,0,0.1,0,0.2C208.6,199.7,208.6,199.9,208.6,200z"/>
	<path class="st7" d="M213,211.7v6.4c0,0.1-0.1,0.3-0.2,0.3h-20.1c-0.1,0-0.3-0.1-0.3-0.3v-6.4c0-0.1,0-0.2,0-0.3
		c0.1-1.5,0.7-2.9,1.6-3.9c0,0,0.1-0.1,0.1-0.1c0.5-0.5,1-0.9,1.6-1.2c0,0,0.1,0,0.1-0.1c0.2-0.1,0.3-0.2,0.5-0.2c0,0,0.1,0,0.1,0
		c0.2-0.1,0.3-0.1,0.5-0.1c0.2,0.2,0.4,0.4,0.6,0.5c0.6,0.4,1.2,0.8,1.8,1.1c0.1,0.1,0.2,0.1,0.4,0.2c0.5,0.2,1,0.3,1.4,0.4
		c0.5,0.1,1,0.1,1.5,0.1c0.6,0,1.1-0.1,1.7-0.2c0.1,0,0.1,0,0.2,0h0c0.1-0.1,0.2-0.1,0.3-0.1c0,0,0,0,0,0c0.3-0.1,0.5-0.2,0.8-0.3
		c0.1,0,0.2-0.1,0.3-0.1c0.5-0.2,1-0.5,1.4-0.8h0c0-0.1,0.1-0.1,0.1-0.1c0.3-0.2,0.6-0.5,0.8-0.7c2.5,0.6,4.4,2.9,4.6,5.7
		C213,211.5,213,211.6,213,211.7z"/>
	
		<ellipse transform="matrix(0.1602 -0.9871 0.9871 0.1602 -91.2706 422.6183)" class="st10" cx="202.7" cy="264.9" rx="18.8" ry="18.8"/>
	<path class="st7" d="M208.6,257.2c0,0.1,0,0.2,0,0.3c0,0.1,0,0.2,0,0.3c0,0.2,0,0.3-0.1,0.5c0,0.2-0.1,0.3-0.1,0.5
		c-0.1,0.3-0.2,0.6-0.3,0.9c0,0,0,0.1-0.1,0.1c-0.1,0.1-0.1,0.3-0.2,0.4c0,0,0,0.1-0.1,0.1c-0.3,0.5-0.6,0.9-1,1.3
		c0,0-0.1,0.1-0.1,0.1c-0.1,0.1-0.1,0.1-0.2,0.2c0,0-0.1,0.1-0.1,0.1c-0.1,0.1-0.2,0.2-0.3,0.2c0,0,0,0,0,0
		c-0.1,0.1-0.3,0.2-0.4,0.3c-0.1,0.1-0.3,0.1-0.4,0.2c0,0,0,0,0,0c-0.3,0.1-0.6,0.2-0.9,0.3c-0.1,0-0.1,0-0.2,0.1
		c-0.3,0.1-0.6,0.1-1,0.1c-0.1,0-0.2,0-0.3,0c-0.1,0-0.1,0-0.2,0c-0.1,0-0.1,0-0.2,0c-0.1,0-0.2,0-0.3,0c-0.3,0-0.6-0.1-1-0.1
		c-0.1,0-0.1,0-0.2-0.1c-0.3-0.1-0.6-0.2-0.9-0.3c0,0,0,0,0,0c-0.1-0.1-0.3-0.1-0.4-0.2c-0.2-0.1-0.3-0.2-0.5-0.3c0,0,0,0,0,0
		c-0.1-0.1-0.2-0.2-0.3-0.2c0,0-0.1-0.1-0.1-0.1c-0.1-0.1-0.1-0.1-0.2-0.2c-0.1-0.1-0.1-0.1-0.2-0.2c-0.4-0.4-0.7-0.8-0.9-1.2
		c0,0,0-0.1-0.1-0.1c-0.1-0.1-0.1-0.3-0.2-0.4c0,0,0-0.1-0.1-0.1c-0.1-0.3-0.2-0.6-0.3-0.9c0-0.2-0.1-0.3-0.1-0.5
		c0-0.2,0-0.3-0.1-0.5c0-0.1,0-0.2,0-0.3c0-0.1,0-0.2,0-0.3s0-0.2,0-0.3c0-0.1,0-0.1,0-0.2v0c0,0,0-0.1,0-0.1c0,0,0-0.1,0-0.1
		c0-0.1,0-0.2,0.1-0.3c0-0.2,0.1-0.3,0.1-0.5c0.1-0.3,0.2-0.6,0.3-0.9c0,0,0,0,0-0.1c0,0,0,0,0-0.1c0.1-0.1,0.1-0.3,0.2-0.4
		c0,0,0-0.1,0.1-0.1c0.3-0.5,0.6-0.9,1-1.3c0,0,0.1-0.1,0.1-0.1c0.1-0.1,0.1-0.1,0.2-0.2c0,0,0.1-0.1,0.1-0.1
		c0.1-0.1,0.2-0.2,0.3-0.2c0,0,0,0,0,0c0.3-0.2,0.6-0.3,0.9-0.5c0,0,0,0,0,0c0.3-0.1,0.6-0.2,0.9-0.3c0.1,0,0.1,0,0.2-0.1
		c0.3-0.1,0.6-0.1,1-0.1c0.1,0,0.2,0,0.3,0c0.1,0,0.1,0,0.2,0c0.1,0,0.1,0,0.2,0c0.1,0,0.2,0,0.3,0c0.3,0,0.6,0.1,1,0.1
		c0.1,0,0.1,0,0.2,0.1c0.3,0.1,0.6,0.2,0.9,0.3c0,0,0,0,0,0c0.3,0.1,0.6,0.3,0.9,0.5c0,0,0,0,0,0c0.1,0.1,0.2,0.2,0.3,0.2
		c0,0,0.1,0.1,0.1,0.1c0.1,0.1,0.1,0.1,0.2,0.2c0,0,0.1,0.1,0.1,0.1c0.4,0.4,0.8,0.8,1,1.3c0,0,0,0.1,0.1,0.1
		c0.1,0.1,0.1,0.3,0.2,0.4c0,0,0,0.1,0.1,0.1c0.1,0.3,0.2,0.6,0.3,0.9c0,0.2,0.1,0.3,0.1,0.5c0,0.2,0,0.3,0.1,0.5c0,0,0,0.1,0,0.1
		c0,0.1,0,0.1,0,0.2C208.6,257,208.6,257.1,208.6,257.2z"/>
	<path class="st7" d="M213,269v6.4c0,0.1-0.1,0.3-0.2,0.3h-20.1c-0.1,0-0.3-0.1-0.3-0.3V269c0-0.1,0-0.2,0-0.3
		c0.1-1.5,0.7-2.9,1.6-3.9c0,0,0.1-0.1,0.1-0.1c0.5-0.5,1-0.9,1.6-1.2c0,0,0.1,0,0.1-0.1c0.2-0.1,0.3-0.2,0.5-0.2c0,0,0.1,0,0.1,0
		c0.2-0.1,0.3-0.1,0.5-0.1c0.2,0.2,0.4,0.4,0.6,0.5c0.6,0.4,1.2,0.8,1.8,1.1c0.1,0.1,0.2,0.1,0.4,0.2c0.5,0.2,1,0.3,1.4,0.4
		c0.5,0.1,1,0.1,1.5,0.1c0.6,0,1.1-0.1,1.7-0.2c0.1,0,0.1,0,0.2,0h0c0.1-0.1,0.2-0.1,0.3-0.1c0,0,0,0,0,0c0.3-0.1,0.5-0.2,0.8-0.3
		c0.1,0,0.2-0.1,0.3-0.1c0.5-0.2,1-0.5,1.4-0.8h0c0-0.1,0.1-0.1,0.1-0.1c0.3-0.2,0.6-0.5,0.8-0.7c2.5,0.6,4.4,2.9,4.6,5.7
		C213,268.8,213,268.9,213,269z"/>
	<path class="st10" d="M261.2,197.4h-30.1c-1.1,0-1.9-0.9-1.9-1.9l0,0c0-1.1,0.9-1.9,1.9-1.9h30.1c1.1,0,1.9,0.9,1.9,1.9l0,0
		C263.1,196.5,262.3,197.4,261.2,197.4z"/>
	<path class="st10" d="M302.1,203h-71.4c-0.8,0-1.5-0.7-1.5-1.5l0,0c0-0.8,0.7-1.5,1.5-1.5h71.4c0.8,0,1.5,0.7,1.5,1.5l0,0
		C303.6,202.3,302.9,203,302.1,203z"/>
	<path class="st10" d="M302.1,208.7h-71.4c-0.8,0-1.5-0.7-1.5-1.5l0,0c0-0.8,0.7-1.5,1.5-1.5h71.4c0.8,0,1.5,0.7,1.5,1.5l0,0
		C303.6,208,302.9,208.7,302.1,208.7z"/>
	<path class="st10" d="M302.1,214.4h-71.4c-0.8,0-1.5-0.7-1.5-1.5l0,0c0-0.8,0.7-1.5,1.5-1.5h71.4c0.8,0,1.5,0.7,1.5,1.5v0
		C303.6,213.7,302.9,214.4,302.1,214.4z"/>
	<path class="st10" d="M302.1,220.1h-71.4c-0.8,0-1.5-0.7-1.5-1.5v0c0-0.8,0.7-1.5,1.5-1.5h71.4c0.8,0,1.5,0.7,1.5,1.5v0
		C303.6,219.5,302.9,220.1,302.1,220.1z"/>
	<path class="st10" d="M302.1,225.9h-71.4c-0.8,0-1.5-0.7-1.5-1.5l0,0c0-0.8,0.7-1.5,1.5-1.5h71.4c0.8,0,1.5,0.7,1.5,1.5v0
		C303.6,225.2,302.9,225.9,302.1,225.9z"/>
	<path class="st10" d="M261.2,253.4h-30.1c-1.1,0-1.9-0.9-1.9-1.9l0,0c0-1.1,0.9-1.9,1.9-1.9h30.1c1.1,0,1.9,0.9,1.9,1.9l0,0
		C263.1,252.5,262.3,253.4,261.2,253.4z"/>
	<path class="st10" d="M302.1,259h-71.4c-0.8,0-1.5-0.7-1.5-1.5l0,0c0-0.8,0.7-1.5,1.5-1.5h71.4c0.8,0,1.5,0.7,1.5,1.5l0,0
		C303.6,258.3,302.9,259,302.1,259z"/>
	<path class="st10" d="M302.1,264.7h-71.4c-0.8,0-1.5-0.7-1.5-1.5l0,0c0-0.8,0.7-1.5,1.5-1.5h71.4c0.8,0,1.5,0.7,1.5,1.5l0,0
		C303.6,264,302.9,264.7,302.1,264.7z"/>
	<path class="st10" d="M302.1,270.4h-71.4c-0.8,0-1.5-0.7-1.5-1.5l0,0c0-0.8,0.7-1.5,1.5-1.5h71.4c0.8,0,1.5,0.7,1.5,1.5l0,0
		C303.6,269.8,302.9,270.4,302.1,270.4z"/>
	<path class="st10" d="M302.1,276.2h-71.4c-0.8,0-1.5-0.7-1.5-1.5v0c0-0.8,0.7-1.5,1.5-1.5h71.4c0.8,0,1.5,0.7,1.5,1.5l0,0
		C303.6,275.5,302.9,276.2,302.1,276.2z"/>
	<path class="st10" d="M302.1,281.9h-71.4c-0.8,0-1.5-0.7-1.5-1.5l0,0c0-0.8,0.7-1.5,1.5-1.5h71.4c0.8,0,1.5,0.7,1.5,1.5l0,0
		C303.6,281.2,302.9,281.9,302.1,281.9z"/>
	<path class="st7" d="M350.7,241.8l12.4-17.9c-5.1-5.4-8.3-12.7-8.3-20.8c0-16.7,13.5-30.2,30.2-30.2s30.2,13.5,30.2,30.2
		s-13.5,30.2-30.2,30.2c-4.4,0-8.6-0.9-12.3-2.6L350.7,241.8z"/>
	<g>
		<path class="st7" d="M139.5,284.5l-7.8-11.2c3.2-3.4,5.2-7.9,5.2-13c0-10.4-8.5-18.9-18.9-18.9c-10.4,0-18.9,8.5-18.9,18.9
			c0,10.4,8.5,18.9,18.9,18.9c2.7,0,5.4-0.6,7.7-1.6L139.5,284.5z"/>
		<path class="st11" d="M127.3,257c-0.2-3.8-3.3-4.7-3.3-4.7c-3.9-1.1-6.6,2.1-6.6,2.1s-2.7-3.1-6.6-2.1c0,0-3,0.8-3.3,4.7
			c-0.3,4.2,7.2,11.3,9.8,13C120.1,268.3,127.6,261.2,127.3,257z"/>
	</g>
	<path class="st5" d="M353.5,311.1l7.8-11.2c-3.2-3.4-5.2-7.9-5.2-13c0-10.4,8.5-18.9,18.9-18.9c10.4,0,18.9,8.5,18.9,18.9
		s-8.5,18.9-18.9,18.9c-2.7,0-5.4-0.6-7.7-1.6L353.5,311.1z"/>
	<path class="st11" d="M365.7,283.6c0.2-3.8,3.3-4.7,3.3-4.7c3.9-1.1,6.6,2.1,6.6,2.1s2.7-3.1,6.6-2.1c0,0,3,0.8,3.3,4.7
		c0.3,4.2-7.2,11.3-9.8,13C372.9,294.9,365.4,287.7,365.7,283.6z"/>
	<g>
		<path class="st11" d="M139.1,198.1l-9.4-13.6c3.9-4.1,6.3-9.6,6.3-15.7c0-12.7-10.3-22.9-22.9-22.9s-22.9,10.3-22.9,22.9
			c0,12.7,10.3,22.9,22.9,22.9c3.3,0,6.5-0.7,9.4-2L139.1,198.1z"/>
		<path class="st7" d="M99.8,167.7c0.2,0.1,0.3,0.2,0.5,0.2c0.2,0.1,0.2,0.4,0.1,0.5c-0.3,0.3-0.4,0.6-0.5,0.9
			c-0.1,0.7,0.1,1.2,0.6,1.6c0.2,0.2,0.4,0.3,0.7,0.4c0.3,0.1,0.3,0.4,0.1,0.6c-0.5,0.4-0.6,1-0.4,1.6c0.2,0.5,0.5,0.9,1,1.2
			c0.1,0,0.1,0.1,0.2,0.1c0.2,0.1,0.2,0.1,0.3,0.3c0,0.1,0,0.2-0.1,0.3c-0.3,0.2-0.4,0.5-0.5,0.8c0,0.3,0,0.5,0.1,0.8
			c0.2,0.4,0.4,0.7,0.7,0.9c0.1,0.1,0.5,0.3,0.8,0.4c0.2,0.1,0.6,0.2,0.8,0.2c7.1,1.4,12-0.4,12.6-0.7c0.1,0,0.6-0.3,0.7-0.3
			c0,0,0.2,0,0.2-0.1V167c-0.3-0.2-0.5-0.4-0.8-0.6c0,0,0,0-0.1-0.1c0,0,0,0,0,0c-1.4-1.8-2.3-3.6-3.3-5.6c-0.7-1.3-0.9-4.2-0.9-5.2
			c0-0.4-0.3-1.1-1.2-1.1c-0.2,0-0.7,0-0.9,0.1c-0.3,0.1-0.6,0.5-0.9,1.1c-0.4,0.7-0.6,1.5-0.8,2.3c-0.1,0.3-0.2,0.6-0.2,0.9
			c0,0.2,0,0.4,0,0.7c0,0.3,0,0.5,0.1,0.8c0,0.5,0.1,1,0.2,1.5c0.1,0.5,0.2,1.1,0.3,1.6c0,0,0,0,0,0c0,0,0,0.1,0,0.1
			c0.2,0.7-0.5,1.1-0.9,1.3c-0.1,0-0.6,0.1-0.7,0.1c-2.3,0-6,0-6.5,0c-0.3,0-0.6,0-0.9,0c-0.5,0-1.1,0.3-1.2,1
			C98.8,166.5,99.1,167.3,99.8,167.7z"/>
		<path class="st7" d="M121.8,179.7h-1c-1.7,0-3.1-1.4-3.1-3.1v-8c0-1.7,1.4-3.1,3.1-3.1h1c1.7,0,3.1,1.4,3.1,3.1v8
			C124.9,178.3,123.5,179.7,121.8,179.7z"/>
	</g>
	<path class="st5" d="M176.6,126.4c0-7.5,8.4-13.6,18.8-13.6c10.4,0,18.8,6.1,18.8,13.6c0,7.5-8.4,13.6-18.8,13.6
		c-0.4,0-0.7,0-1.1,0c-2,1.8-5.7,4-12,3.5c0,0,3.7-1.5,5-4.8C181,136.4,176.6,131.8,176.6,126.4z"/>
	<path class="st11" d="M233.9,117.7c0-7.5-8.4-13.6-18.8-13.6c-10.4,0-18.8,6.1-18.8,13.6s8.4,13.6,18.8,13.6c0.4,0,0.7,0,1.1,0
		c2,1.8,5.7,4,12,3.5c0,0-3.7-1.5-5-4.8C229.5,127.7,233.9,123,233.9,117.7z"/>
	<g class="st12">
		<path d="M233.8,117.7c0,0.6-0.1,1.2-0.2,1.8h-37.4c-0.1-0.6-0.2-1.2-0.2-1.8c0-7.5,8.4-13.6,18.8-13.6
			C225.4,104.1,233.8,110.2,233.8,117.7z"/>
	</g>
	<g>
		<path class="st13" d="M210,119.5c0,1.2-0.9,2.1-2.1,2.1c-1.2,0-2.1-0.9-2.1-2.1c0-1.2,0.9-2.1,2.1-2.1
			C209,117.4,210,118.3,210,119.5z"/>
		<circle class="st13" cx="215" cy="119.5" r="2.1"/>
		<circle class="st13" cx="222.2" cy="119.5" r="2.1"/>
	</g>
	<path class="st6" d="M213.1,131.1c-0.8,1.5-1.9,2.8-3.2,4c-9.6-2.3-16.3-9.4-15.2-16.7c0.3-2.1,1.2-4,2.6-5.6
		c0.1-0.1,0.2-0.2,0.3-0.3c-0.1,0.1-0.1,0.2-0.2,0.4c-0.8,1.5-1.2,3.1-1.2,4.8C196.2,124.7,203.6,130.4,213.1,131.1z"/>
	<g>
		<path class="st11" d="M306.4,158.3l7.9-11.4c-3.2-3.4-5.2-8.1-5.2-13.2c0-10.6,8.6-19.2,19.2-19.2s19.2,8.6,19.2,19.2
			s-8.6,19.2-19.2,19.2c-2.8,0-5.4-0.6-7.8-1.7L306.4,158.3z"/>
		<path class="st7" d="M317.9,135.6c0.1-0.1,0.3-0.1,0.4-0.2c0.2,0,0.2-0.3,0.1-0.4c-0.2-0.2-0.3-0.5-0.4-0.8
			c-0.1-0.5,0.1-1,0.5-1.3c0.2-0.1,0.3-0.3,0.5-0.3c0.2-0.1,0.3-0.4,0.1-0.5c-0.4-0.3-0.5-0.8-0.3-1.3c0.2-0.4,0.4-0.7,0.8-1
			c0.1,0,0.1-0.1,0.2-0.1c0.1,0,0.2-0.1,0.2-0.3c0-0.1,0-0.2-0.1-0.3c-0.2-0.2-0.4-0.4-0.4-0.7c0-0.2,0-0.4,0.1-0.6
			c0.1-0.3,0.4-0.5,0.6-0.8c0.1-0.1,0.4-0.3,0.7-0.4c0.1-0.1,0.5-0.1,0.6-0.2c5.8-1.2,9.9,0.3,10.4,0.5c0.1,0,0.5,0.3,0.6,0.3
			c0,0,0.1,0,0.1,0v8.7c-0.2,0.2-0.4,0.3-0.7,0.5c0,0,0,0-0.1,0.1c0,0,0,0,0,0c-1.2,1.5-1.9,3-2.8,4.6c-0.6,1.1-0.7,3.4-0.7,4.3
			c0,0.4-0.3,0.9-1,0.9c-0.2,0-0.5,0-0.8-0.1c-0.3-0.1-0.5-0.4-0.7-0.9c-0.3-0.6-0.5-1.2-0.7-1.9c-0.1-0.2-0.1-0.5-0.2-0.7
			c0-0.2,0-0.4,0-0.6c0-0.2,0-0.4,0-0.6c0-0.4,0.1-0.8,0.2-1.2c0.1-0.4,0.2-0.9,0.2-1.3c0,0,0,0,0,0c0,0,0-0.1,0-0.1
			c0.1-0.6-0.4-0.9-0.8-1c-0.1,0-0.5-0.1-0.6-0.1c-1.9,0-5,0-5.4,0c-0.3,0-0.5,0-0.8,0c-0.4,0-0.9-0.3-1-0.8
			C317,136.6,317.3,135.9,317.9,135.6z"/>
		<path class="st7" d="M335.7,125.7h-0.8c-1.4,0-2.6,1.2-2.6,2.6v6.6c0,1.4,1.2,2.6,2.6,2.6h0.8c1.4,0,2.6-1.2,2.6-2.6v-6.6
			C338.2,126.9,337.1,125.7,335.7,125.7z"/>
	</g>
	<g>
		<path class="st3" d="M366.9,213.8l4.3-22.7h4.6l-1.7,9l0.1,0c1.3-1.4,2.9-2.4,5-2.4c2.4,0,3.9,1.5,3.9,4.2c0,0.7-0.1,1.9-0.3,2.8
			l-1.7,8.9h-4.6l1.6-8.6c0.1-0.6,0.2-1.3,0.2-1.9c0-1-0.4-1.8-1.6-1.8c-1.6,0-3.2,1.9-3.8,5.1l-1.3,7.2H366.9z"/>
		<path class="st3" d="M384.9,213.8l3-15.6h4.6l-3,15.6H384.9z M388.5,194c0-1.6,1.2-2.6,2.7-2.6c1.3,0,2.3,0.9,2.3,2.3
			c0,1.6-1.2,2.6-2.7,2.6C389.4,196.3,388.5,195.4,388.5,194z"/>
		<path class="st3" d="M393.4,211.6c0-1.7,1.3-3.2,3.1-3.2c1.6,0,2.7,1.1,2.7,2.7c0,1.8-1.3,3.1-3.1,3.1
			C394.4,214.2,393.4,213.1,393.4,211.6z M395.2,206.8l2.1-14.5h5l-3.5,14.5H395.2z"/>
	</g>
</g>
</svg>
