<?xml version="1.0" encoding="UTF-8" standalone="no"?>
<svg
   xmlns:dc="http://purl.org/dc/elements/1.1/"
   xmlns:cc="http://creativecommons.org/ns#"
   xmlns:rdf="http://www.w3.org/1999/02/22-rdf-syntax-ns#"
   xmlns:svg="http://www.w3.org/2000/svg"
   xmlns="http://www.w3.org/2000/svg"
   
   viewBox="0 0 400 400"
   y="0px"
   x="0px"
   id="Layer_1"
   version="1.1">
  <metadata
     id="metadata737">
    <rdf:RDF>
      <cc:Work
         rdf:about="">
        <dc:format>image/svg+xml</dc:format>
        <dc:type
           rdf:resource="http://purl.org/dc/dcmitype/StillImage" />
        <dc:title></dc:title>
      </cc:Work>
    </rdf:RDF>
  </metadata>
  <defs
     id="defs735" />
  <style
     id="style2"
     type="text/css"> .st0{fill:#EA1F69;} .st1{fill:#424F59;} .st2{fill:#FFFFFF;} .st3{fill:#5CA3A3;} .st4{fill:#ECEDDF;} .st5{opacity:0.6;fill:#ECEDDF;} .st6{fill:#7B7F86;} .st7{fill:#029736;} .st8{fill:#EACCA2;} .st9{fill:#55636B;} .st10{fill:#ECB800;} .st11{fill:#D7D9BB;} .st12{opacity:0.2;} .st13{opacity:0.3;} .st14{fill:#0081B8;} .st15{fill:#9900B9;} .st16{fill:#F47009;} .st17{fill:#EA5F5D;} .st18{fill:#F4BE4A;} .st19{fill:#A0B400;} .st20{fill:#FA4A78;} .st21{fill:#F68E3D;} .st22{fill-rule:evenodd;clip-rule:evenodd;fill:#2CB0B5;} .st23{fill:#E1B720;} .st24{fill:#02D46A;} .st25{opacity:0.3;fill:#424F59;} .st26{fill:#2CB0B5;} .st27{opacity:0.5;} .st28{fill-rule:evenodd;clip-rule:evenodd;fill:#ECEDDF;} </style>
  <rect
     style="stroke-width:0.8;fill:#ea1f69;fill-opacity:0"
     y="0"
     x="0"
     id="rect4"
     height="400"
     width="400"
     class="st0" />
  <g
     transform="translate(-54.421764,-59.18367)"
     id="g730">
    <g
       id="NOTEBOOK_2_">
      <g
         id="g306">
        <g
           id="g296">
          <path
             id="path6"
             d="M 350.2,352.1 H 139.5 V 215.9 c 0,-3.7 3,-6.7 6.7,-6.7 h 199.5 c 2.5,0 4.4,2 4.4,4.4 v 138.5 z"
             class="st1" />
          <path
             id="path8"
             d="M 147.7,341.8 V 219.5 c 0,-1.2 1,-2.1 2.1,-2.1 h 190.1 c 1.2,0 2.1,1 2.1,2.1 v 122.3 z"
             class="st2" />
          <path
             id="path10"
             d="M 365.1,351.8 H 258.9 c -11.8,0 -26.1,0 -34.2,0 H 118.4 v 7 h 246.8 v -7 z"
             class="st2" />
          <path
             id="path12"
             d="m 118.4,358.7 v 0.1 c 0,0 2.2,5.7 6.4,5.7 h 214.4 c 23.3,0 24.8,-2.6 26,-5.7 v -0.1 z"
             class="st1" />
          <path
             id="path14"
             d="m 227.3,356.7 c 0,0.4 0.3,0.8 0.8,0.8 h 27.3 c 0.4,0 0.8,-0.3 0.8,-0.8 v -0.8 c 0,-0.4 -0.3,-0.8 -0.8,-0.8 h -27.3 c -0.4,0 -0.8,0.3 -0.8,0.8 z"
             class="st1" />
          <rect
             id="rect16"
             height="108.1"
             width="151.2"
             class="st2"
             y="233.8"
             x="190.89999" />
          <rect
             id="rect18"
             height="108.1"
             width="43.099998"
             class="st3"
             y="233.8"
             x="147.8" />
          <rect
             id="rect20"
             height="35.400002"
             width="43.099998"
             class="st3"
             y="265.20001"
             x="147.8" />
          <rect
             id="rect22"
             height="9.6000004"
             width="194.3"
             class="st1"
             y="224.2"
             x="147.8" />
          <path
             id="path24"
             d="m 168.3,246.3 c 0,-4.7 -3.8,-8.6 -8.6,-8.6 -4.7,0 -8.6,3.8 -8.6,8.6 0,4.7 3.8,8.6 8.6,8.6 4.8,0 8.6,-3.9 8.6,-8.6 z"
             class="st4" />
          <rect
             id="rect26"
             height="1.1"
             width="8.1000004"
             class="st4"
             y="249.2"
             x="169.8" />
          <rect
             id="rect28"
             height="1.1"
             width="8"
             class="st5"
             y="269"
             x="165.5" />
          <rect
             id="rect30"
             height="1.1"
             width="2"
             class="st5"
             y="269"
             x="176.8" />
          <rect
             id="rect32"
             height="1.1"
             width="2"
             class="st5"
             y="269"
             x="179.8" />
          <rect
             id="rect34"
             height="1.1"
             width="8"
             class="st5"
             y="259.70001"
             x="159.89999" />
          <rect
             id="rect36"
             height="1.1"
             width="2"
             class="st5"
             y="259.70001"
             x="171.2" />
          <rect
             id="rect38"
             height="1.1"
             width="2"
             class="st5"
             y="259.70001"
             x="174.2" />
          <rect
             id="rect40"
             height="1.6"
             width="10.8"
             class="st4"
             y="244.89999"
             x="169.8" />
          <rect
             id="rect42"
             height="1.1"
             width="7.0999999"
             class="st4"
             y="249.2"
             x="180.60001" />
          <path
             id="path44"
             d="m 160.7,268.5 h -1.3 v -0.2 c 0,-0.1 -0.1,-0.2 -0.2,-0.2 h -1.4 c -0.1,0 -0.2,0.1 -0.2,0.2 v 0.5 0.5 0.7 c 0,0.2 0.1,0.3 0.3,0.3 h 2.7 c 0.2,0 0.3,-0.1 0.3,-0.3 v -1.2 c 0.1,-0.2 -0.1,-0.3 -0.2,-0.3 z"
             class="st4" />
          <path
             id="path46"
             d="m 203.6,245.5 h -1.2 v -0.2 c 0,-0.1 -0.1,-0.2 -0.2,-0.2 H 201 c -0.1,0 -0.2,0.1 -0.2,0.2 v 0.4 0.5 0.7 c 0,0.2 0.1,0.3 0.3,0.3 h 2.6 c 0.2,0 0.3,-0.1 0.3,-0.3 v -1.2 c -0.1,0 -0.2,-0.2 -0.4,-0.2 z"
             class="st6" />
          <rect
             id="rect48"
             height="1.1"
             width="8"
             class="st5"
             y="274.39999"
             x="165.5" />
          <rect
             id="rect50"
             height="1.1"
             width="2"
             class="st5"
             y="274.39999"
             x="176.8" />
          <rect
             id="rect52"
             height="1.1"
             width="2"
             class="st5"
             y="274.39999"
             x="179.8" />
          <path
             id="path54"
             d="m 160.7,273.9 h -1.3 v -0.2 c 0,-0.1 -0.1,-0.2 -0.2,-0.2 h -1.4 c -0.1,0 -0.2,0.1 -0.2,0.2 v 0.5 0.5 0.7 c 0,0.2 0.1,0.3 0.3,0.3 h 2.7 c 0.2,0 0.3,-0.1 0.3,-0.3 v -1.2 c 0.1,-0.2 -0.1,-0.3 -0.2,-0.3 z"
             class="st4" />
          <rect
             id="rect56"
             height="1.1"
             width="8"
             class="st5"
             y="279.79999"
             x="165.5" />
          <rect
             id="rect58"
             height="1.1"
             width="2"
             class="st5"
             y="279.79999"
             x="176.8" />
          <rect
             id="rect60"
             height="1.1"
             width="2"
             class="st5"
             y="279.79999"
             x="179.8" />
          <path
             id="path62"
             d="m 160.7,279.3 h -1.3 v -0.2 c 0,-0.1 -0.1,-0.2 -0.2,-0.2 h -1.4 c -0.1,0 -0.2,0.1 -0.2,0.2 v 0.5 0.5 0.7 c 0,0.2 0.1,0.3 0.3,0.3 h 2.7 c 0.2,0 0.3,-0.1 0.3,-0.3 v -1.2 c 0.1,-0.1 -0.1,-0.3 -0.2,-0.3 z"
             class="st4" />
          <g
             id="g66">
            <path
               id="path64"
               d="m 155.9,258.8 v 0 c -0.2,-0.5 -0.7,-0.9 -1.3,-0.9 -0.7,0 -1.3,0.6 -1.4,1.3 -0.5,0 -0.9,0.4 -0.9,1 0,0.5 0.4,1 1,1 h 0.8 c 0,0 0.4,0 0.4,0 v -1.1 H 154 l 0.8,-0.9 0.8,0.9 h -0.5 v 1.1 h 1 c 0.6,0 1.1,-0.5 1.1,-1.1 V 260 c -0.2,-0.7 -0.7,-1.2 -1.3,-1.2 z"
               class="st4" />
          </g>
          <rect
             id="rect68"
             height="23.5"
             width="27.9"
             class="st4"
             y="253.10001"
             x="199.5" />
          <rect
             id="rect70"
             height="23.5"
             width="27.9"
             class="st4"
             y="253.10001"
             x="235.5" />
          <rect
             id="rect72"
             height="23.5"
             width="27.9"
             class="st4"
             y="253.10001"
             x="271.60001" />
          <rect
             id="rect74"
             height="5.6999998"
             width="20"
             class="st7"
             y="237.2"
             x="200.10001" />
          <path
             id="path76"
             d="m 157.3,286.8 h 27.8 c 0.3,0 0.6,-0.3 0.6,-0.6 v 0 c 0,-0.3 -0.3,-0.6 -0.6,-0.6 h -27.8 c -0.3,0 -0.6,0.3 -0.6,0.6 v 0 c 0,0.3 0.3,0.6 0.6,0.6 z"
             class="st4" />
          <rect
             id="rect78"
             height="0.69999999"
             width="8.8000002"
             class="st4"
             y="239.7"
             x="203" />
          <rect
             id="rect80"
             height="0.69999999"
             width="2.5999999"
             class="st4"
             y="239.7"
             x="214.39999" />
          <rect
             id="rect82"
             height="5.6999998"
             width="20"
             class="st4"
             y="237.2"
             x="221.10001" />
          <rect
             id="rect84"
             height="0.69999999"
             width="7.3000002"
             class="st6"
             y="239.7"
             x="224" />
          <rect
             id="rect86"
             height="0.69999999"
             width="1.5"
             class="st6"
             y="239.7"
             x="232.10001" />
          <rect
             id="rect88"
             height="0.69999999"
             width="2.2"
             class="st6"
             y="239.7"
             x="234" />
          <rect
             id="rect90"
             height="5.6999998"
             width="20"
             class="st4"
             y="237.2"
             x="242" />
          <rect
             id="rect92"
             height="0.69999999"
             width="8.8000002"
             class="st6"
             y="239.7"
             x="244.89999" />
          <rect
             id="rect94"
             height="0.69999999"
             width="2.5999999"
             class="st6"
             y="239.7"
             x="255" />
          <rect
             id="rect96"
             height="0.5"
             width="21.299999"
             class="st6"
             y="246"
             x="205.5" />
          <rect
             id="rect98"
             height="0.5"
             width="6.1999998"
             class="st6"
             y="246"
             x="228.8" />
          <rect
             id="rect100"
             height="5.6999998"
             width="20"
             class="st4"
             y="237.2"
             x="262.89999" />
          <rect
             id="rect102"
             height="0.69999999"
             width="8.8000002"
             class="st6"
             y="239.7"
             x="265.89999" />
          <rect
             id="rect104"
             height="0.69999999"
             width="2.5999999"
             class="st4"
             y="239.7"
             x="277.29999" />
          <rect
             id="rect106"
             height="0.60000002"
             width="10.1"
             class="st2"
             y="228"
             x="320.5" />
          <path
             id="path108"
             d="m 156.8,286.8 h 9.5 c 0.1,0 0.1,0 0.1,-0.1 v -1 c 0,-0.1 0,-0.1 -0.1,-0.1 h -9.5 c -0.1,0 -0.1,0 -0.1,0.1 l 0.1,1.1 c -0.1,-0.1 0,0 0,0 z"
             class="st7" />
          <g
             id="g124">
            <path
               id="path110"
               d="m 162,243.4 c 0,1.8 -0.1,3.7 -1.4,3.7 -0.5,0 -1.8,-0.2 -2.3,-0.5 -0.7,-0.6 -0.8,-1.7 -0.8,-2.9 0,-1.8 0.7,-2.8 2.1,-2.8 1.5,-0.1 2.4,0.6 2.4,2.5 z"
               class="st8" />
            <path
               id="path112"
               d="m 158.3,244.2 c 0,0.6 -0.3,1.1 -0.6,1.1 -0.4,0 -0.6,-0.5 -0.6,-1.1 0,-0.6 0.3,-1.1 0.6,-1.1 0.3,0 0.6,0.5 0.6,1.1 z"
               class="st8" />
            <polygon
               id="polygon114"
               points="161.3,244.6 161.1,242.1 162,242.1 162.3,244.6 "
               class="st8" />
            <path
               id="path116"
               d="m 161.4,243.3 c 0,-0.2 -0.2,-0.4 -0.4,-0.4 -0.2,0 -0.4,0.2 -0.4,0.4 0,0.2 0.2,0.4 0.4,0.4 0.2,0 0.4,-0.2 0.4,-0.4 z"
               class="st9" />
            <path
               id="path118"
               d="m 161.7,242.1 h -1.3 c 0,0 -1.6,-0.2 -1.7,0.3 -0.1,0.5 -0.2,0.5 -0.2,0.8 0.1,0.6 0.1,0.8 0.1,0.8 l -0.5,-0.1 c 0,0 0.2,-0.7 -0.2,-0.8 -0.3,-0.1 -0.5,0 -0.6,0.2 0.1,-0.9 -0.2,-2.8 1.5,-2.8 1.7,0 2.6,-0.2 3.2,-0.1 0.4,0.1 0.9,1.4 -0.3,1.7 z"
               class="st9" />
            <path
               id="path120"
               d="m 155.2,250.6 h 9 c 0,-1.7 -1.4,-3.1 -3.1,-3.1 h -2.7 c -1.8,-0.1 -3.2,1.3 -3.2,3.1 z"
               class="st9" />
            <polygon
               id="polygon122"
               points="160.5,247.6 160.5,246.1 158.3,246.1 158.3,247.6 159.7,249 "
               class="st8" />
          </g>
          <rect
             id="rect126"
             height="23.5"
             width="27.9"
             class="st4"
             y="284.39999"
             x="199.5" />
          <rect
             id="rect128"
             height="23.5"
             width="27.9"
             class="st4"
             y="284.39999"
             x="235.5" />
          <rect
             id="rect130"
             height="23.5"
             width="27.9"
             class="st4"
             y="284.39999"
             x="271.60001" />
          <rect
             id="rect132"
             height="23.5"
             width="27.9"
             class="st4"
             y="284.39999"
             x="307.60001" />
          <rect
             id="rect134"
             height="23.5"
             width="27.9"
             class="st4"
             y="312.5"
             x="199.5" />
          <rect
             id="rect136"
             height="23.5"
             width="27.9"
             class="st4"
             y="312.5"
             x="235.5" />
          <rect
             id="rect138"
             height="23.5"
             width="27.9"
             class="st4"
             y="312.5"
             x="271.60001" />
          <rect
             id="rect140"
             height="23.5"
             width="27.9"
             class="st4"
             y="312.5"
             x="307.60001" />
          <circle
             id="circle142"
             r="1.7"
             cy="228.5"
             cx="316.29999"
             class="st10" />
          <g
             id="g148">
            <rect
               id="rect144"
               height="1.3"
               width="4.4000001"
               class="st11"
               y="277.89999"
               x="199.5" />
            <rect
               id="rect146"
               height="1.3"
               width="8.1999998"
               class="st11"
               y="277.89999"
               x="204.8" />
          </g>
          <g
             id="g154">
            <rect
               id="rect150"
               height="1.3"
               width="4.4000001"
               class="st11"
               y="309.29999"
               x="235.3" />
            <rect
               id="rect152"
               height="1.3"
               width="8.1999998"
               class="st11"
               y="309.29999"
               x="240.7" />
          </g>
          <g
             id="g160">
            <rect
               id="rect156"
               height="1.3"
               width="4.4000001"
               class="st11"
               y="277.89999"
               x="308.29999" />
            <rect
               id="rect158"
               height="1.3"
               width="8.1999998"
               class="st11"
               y="277.89999"
               x="313.60001" />
          </g>
          <rect
             id="rect162"
             height="1.3"
             width="6.3000002"
             class="st11"
             y="277.89999"
             x="236.39999" />
          <rect
             id="rect164"
             height="1.3"
             width="12.4"
             class="st11"
             y="277.89999"
             x="244.5" />
          <rect
             id="rect166"
             height="1.3"
             width="6.3000002"
             class="st11"
             y="308.89999"
             x="273.20001" />
          <rect
             id="rect168"
             height="1.3"
             width="12.4"
             class="st11"
             y="308.89999"
             x="281.29999" />
          <rect
             id="rect170"
             height="1.3"
             width="6.3000002"
             class="st11"
             y="309.39999"
             x="199.60001" />
          <rect
             id="rect172"
             height="1.3"
             width="12.4"
             class="st11"
             y="309.39999"
             x="207.7" />
          <rect
             id="rect174"
             height="1.3"
             width="3.5"
             class="st11"
             y="277.89999"
             x="273.79999" />
          <rect
             id="rect176"
             height="1.3"
             width="15.2"
             class="st11"
             y="277.89999"
             x="279.10001" />
          <g
             id="g182">
            <rect
               id="rect178"
               height="1.3"
               width="4.4000001"
               class="st11"
               y="337.5"
               x="271.70001" />
            <rect
               id="rect180"
               height="1.3"
               width="8.1999998"
               class="st11"
               y="337.5"
               x="277" />
          </g>
          <rect
             id="rect184"
             height="1.3"
             width="6.3000002"
             class="st11"
             y="337.5"
             x="199.8" />
          <rect
             id="rect186"
             height="1.3"
             width="12.4"
             class="st11"
             y="337.5"
             x="207.89999" />
          <rect
             id="rect188"
             height="1.3"
             width="3.5"
             class="st11"
             y="337.5"
             x="237.2" />
          <rect
             id="rect190"
             height="1.3"
             width="15.2"
             class="st11"
             y="337.5"
             x="242.39999" />
          <rect
             id="rect192"
             height="42.099998"
             width="20.9"
             class="st12"
             y="299.5"
             x="139.5" />
          <g
             id="g288">
            <g
               id="g280">
              <g
                 id="g196"
                 class="st13">
                <path
                   id="path194"
                   d="m 256.2,301 c 0,1 -0.8,1.7 -1.7,1.7 h -10 c -1,0 -1.7,-0.8 -1.7,-1.7 v -9.8 c 0,-1 0.8,-1.7 1.7,-1.7 h 10 c 1,0 1.7,0.8 1.7,1.7 z"
                   class="st14" />
              </g>
              <g
                 id="g200"
                 class="st13">
                <path
                   id="path198"
                   d="m 292.2,301 c 0,1 -0.8,1.7 -1.7,1.7 h -10 c -1,0 -1.7,-0.8 -1.7,-1.7 v -9.8 c 0,-1 0.8,-1.7 1.7,-1.7 h 10 c 1,0 1.7,0.8 1.7,1.7 z"
                   class="st15" />
              </g>
              <g
                 id="g206"
                 class="st13">
                <path
                   id="path202"
                   d="m 256.2,269.7 c 0,1 -0.8,1.7 -1.7,1.7 h -10 c -1,0 -1.7,-0.8 -1.7,-1.7 v -9.8 c 0,-1 0.8,-1.7 1.7,-1.7 h 10 c 1,0 1.7,0.8 1.7,1.7 z"
                   class="st16" />
                <polygon
                   id="polygon204"
                   points="248.1,267.3 248.1,262.4 251.7,264.8 "
                   class="st2" />
              </g>
              <g
                 id="g210"
                 class="st13">
                <path
                   id="path208"
                   d="m 220.1,329.2 c 0,1 -0.8,1.7 -1.7,1.7 h -10 c -1,0 -1.7,-0.8 -1.7,-1.7 v -9.8 c 0,-1 0.8,-1.7 1.7,-1.7 h 10 c 1,0 1.7,0.8 1.7,1.7 z"
                   class="st17" />
              </g>
              <g
                 id="g216"
                 class="st13">
                <path
                   id="path212"
                   d="m 292.4,270.1 c 0,1 -0.8,1.8 -1.8,1.8 h -10.2 c -1,0 -1.8,-0.8 -1.8,-1.8 v -10 c 0,-1 0.8,-1.8 1.8,-1.8 h 10.2 c 1,0 1.8,0.8 1.8,1.8 z"
                   class="st18" />
                <path
                   id="path214"
                   d="m 289.3,267.8 c -0.2,-0.5 -1.2,-3.8 -1.2,-3.8 v -0.1 L 285,261 c -0.1,-0.1 -0.4,-0.3 -1,-0.1 -0.2,0.1 -0.4,0.3 -0.7,0.6 -0.1,0.1 -0.2,0.2 -0.3,0.3 -0.2,0.2 -0.4,0.5 -0.7,0.7 -0.1,0.1 -0.2,0.2 -0.3,0.3 -0.3,0.4 -0.6,0.6 -0.7,0.9 -0.2,0.5 0,0.9 0.2,1 l 3.1,3 4,1 c 0.1,0 0.4,0.1 0.6,-0.1 0.1,-0.3 0.2,-0.5 0.1,-0.8 z m -1,-1.3 -1.1,1.2 -2.2,-0.5 0.5,-0.3 v 0 c 0.1,0 0.2,-0.1 0.5,-1.2 1.1,-0.4 1.2,-0.6 1.3,-0.7 l 0.2,-0.6 c 0.2,0.3 0.5,1.2 0.8,2.1 z m -4.9,-4.4 c 0.1,-0.1 0.2,-0.2 0.3,-0.3 0.2,-0.2 0.4,-0.4 0.5,-0.4 0.3,-0.1 0.5,0 0.5,0 l 2.6,2.5 -0.3,0.8 c -0.1,0 -0.3,0.2 -1,0.4 l -2.8,-2.7 c -0.1,-0.1 0.1,-0.2 0.2,-0.3 z m -1.6,2.1 c 0,0 -0.1,-0.1 0,-0.4 0.1,-0.2 0.4,-0.6 0.6,-0.7 0.1,-0.1 0.2,-0.2 0.3,-0.3 l 2.9,2.7 c -0.1,0.5 -0.2,0.7 -0.3,0.8 l -0.8,0.4 z m 7,3.8 -1,-0.2 0.7,-0.7 c 0.1,0.4 0.2,0.7 0.3,0.9 z"
                   class="st2" />
              </g>
              <rect
                 id="rect218"
                 height="23.5"
                 width="27.9"
                 class="st4"
                 y="253.10001"
                 x="307.60001" />
              <g
                 id="g228"
                 class="st13">
                <path
                   id="path220"
                   d="m 256.1,329.1 c 0,0.9 -0.8,1.7 -1.7,1.7 h -9.9 c -0.9,0 -1.7,-0.8 -1.7,-1.7 v -9.7 c 0,-0.9 0.8,-1.7 1.7,-1.7 h 9.9 c 0.9,0 1.7,0.8 1.7,1.7 z"
                   class="st19" />
                <g
                   id="g226">
                  <path
                     id="path222"
                     d="m 249.9,322.6 c -0.8,0 -1.4,0.6 -1.4,1.4 0,0.8 0.7,1.4 1.4,1.4 0.8,0 1.4,-0.6 1.4,-1.4 0,-0.7 -0.6,-1.4 -1.4,-1.4 z"
                     class="st2" />
                  <path
                     id="path224"
                     d="m 253.6,326.1 v -3.8 c 0,-0.6 -0.4,-1 -1,-1 h -0.8 l -0.4,-0.6 h -2.9 l -0.3,0.6 h -0.9 v -0.1 c 0,0 -0.2,0 -0.6,0 -0.4,0 -0.6,0 -0.6,0 v 0.2 c -0.6,0.1 -1.1,0.5 -1.1,1 v 3.8 c 0,0.6 0.5,1 1,1 h 6.5 c 0.6,-0.1 1.1,-0.5 1.1,-1.1 z m -7.5,-3.4 c -0.1,0 -0.3,-0.1 -0.3,-0.3 0,-0.1 0.1,-0.3 0.3,-0.3 0.1,0 0.3,0.1 0.3,0.3 0,0.2 -0.1,0.3 -0.3,0.3 z m 3.8,3.7 c -1.3,0 -2.4,-1.1 -2.4,-2.4 0,-1.3 1.1,-2.4 2.4,-2.4 1.3,0 2.4,1.1 2.4,2.4 0,1.4 -1.1,2.4 -2.4,2.4 z"
                     class="st2" />
                </g>
              </g>
              <g
                 id="g238"
                 class="st13">
                <path
                   id="path230"
                   d="m 219.7,300.9 c 0,0.9 -0.8,1.7 -1.7,1.7 h -9.9 c -0.9,0 -1.7,-0.8 -1.7,-1.7 v -9.7 c 0,-0.9 0.8,-1.7 1.7,-1.7 h 9.9 c 0.9,0 1.7,0.8 1.7,1.7 z"
                   class="st19" />
                <g
                   id="g236">
                  <path
                     id="path232"
                     d="m 213.5,294.4 c -0.8,0 -1.4,0.6 -1.4,1.5 0,0.8 0.7,1.4 1.4,1.4 0.8,0 1.4,-0.6 1.4,-1.4 0,-0.8 -0.6,-1.5 -1.4,-1.5 z"
                     class="st2" />
                  <path
                     id="path234"
                     d="m 217.1,297.9 v -3.8 c 0,-0.6 -0.4,-1 -1,-1 h -0.7 l -0.4,-0.6 h -2.9 l -0.3,0.6 h -0.9 V 293 c 0,0 -0.2,0 -0.6,0 -0.4,0 -0.6,0 -0.6,0 v 0.2 c -0.6,0.1 -1.1,0.5 -1.1,1 v 3.8 c 0,0.6 0.5,1 1,1 h 6.5 c 0.6,-0.1 1,-0.6 1,-1.1 z m -7.4,-3.4 c -0.1,0 -0.3,-0.1 -0.3,-0.3 0,-0.1 0.1,-0.3 0.3,-0.3 0.2,0 0.3,0.1 0.3,0.3 0,0.2 -0.1,0.3 -0.3,0.3 z m 3.8,3.7 c -1.3,0 -2.4,-1.1 -2.4,-2.4 0,-1.3 1.1,-2.4 2.4,-2.4 1.3,0 2.4,1.1 2.4,2.4 -0.1,1.4 -1.1,2.4 -2.4,2.4 z"
                     class="st2" />
                </g>
              </g>
              <g
                 id="g246">
                <path
                   id="path240"
                   d="m 210.3,324.5 v 1.4 H 210 v -3.3 h 1.1 c 0.3,0 0.6,0.1 0.8,0.3 0.2,0.2 0.3,0.4 0.3,0.7 0,0.3 -0.1,0.5 -0.3,0.7 -0.2,0.2 -0.5,0.3 -0.8,0.3 h -0.8 z m 0,-0.2 h 0.9 c 0.3,0 0.5,-0.1 0.6,-0.2 0.1,-0.1 0.2,-0.3 0.2,-0.5 0,-0.2 -0.1,-0.4 -0.2,-0.5 -0.1,-0.1 -0.3,-0.2 -0.6,-0.2 h -0.9 z"
                   class="st2" />
                <path
                   id="path242"
                   d="m 212.9,325.9 v -3.3 h 1 c 0.4,0 0.7,0.1 1,0.4 0.3,0.3 0.4,0.6 0.4,1 v 0.4 c 0,0.4 -0.1,0.8 -0.4,1 -0.3,0.3 -0.6,0.4 -1,0.4 h -1 z m 0.2,-3.1 v 2.8 h 0.7 c 0.3,0 0.6,-0.1 0.8,-0.3 0.2,-0.2 0.3,-0.5 0.3,-0.9 V 324 c 0,-0.3 -0.1,-0.6 -0.3,-0.9 -0.2,-0.2 -0.5,-0.3 -0.8,-0.3 z"
                   class="st2" />
                <path
                   id="path244"
                   d="m 217.8,324.3 h -1.6 v 1.5 h -0.3 v -3.3 h 2.1 v 0.2 h -1.8 v 1.3 h 1.6 z"
                   class="st2" />
              </g>
              <g
                 id="g254">
                <path
                   id="path248"
                   d="m 283,294.4 h 0.3 v 2.4 c 0,0.3 -0.1,0.5 -0.3,0.7 -0.2,0.2 -0.4,0.3 -0.7,0.3 -0.3,0 -0.6,-0.1 -0.7,-0.2 -0.2,-0.2 -0.3,-0.4 -0.3,-0.7 v 0 h 0.3 c 0,0.2 0.1,0.4 0.2,0.5 0.1,0.1 0.3,0.2 0.5,0.2 0.2,0 0.4,-0.1 0.5,-0.2 0.1,-0.1 0.2,-0.3 0.2,-0.5 z"
                   class="st2" />
                <path
                   id="path250"
                   d="m 284.4,296.3 v 1.4 h -0.3 v -3.3 h 1.1 c 0.3,0 0.6,0.1 0.8,0.3 0.2,0.2 0.3,0.4 0.3,0.7 0,0.3 -0.1,0.5 -0.3,0.7 -0.2,0.2 -0.5,0.3 -0.8,0.3 h -0.8 z m 0,-0.2 h 0.9 c 0.3,0 0.5,-0.1 0.6,-0.2 0.1,-0.1 0.2,-0.3 0.2,-0.5 0,-0.2 -0.1,-0.4 -0.2,-0.5 -0.1,-0.1 -0.3,-0.2 -0.6,-0.2 h -0.9 z"
                   class="st2" />
                <path
                   id="path252"
                   d="m 289.3,297.3 c -0.1,0.1 -0.2,0.2 -0.4,0.3 -0.2,0.1 -0.4,0.1 -0.7,0.1 -0.4,0 -0.7,-0.1 -0.9,-0.4 -0.2,-0.3 -0.4,-0.6 -0.4,-1 v -0.6 c 0,-0.4 0.1,-0.7 0.3,-1 0.2,-0.3 0.5,-0.4 0.9,-0.4 0.4,0 0.6,0.1 0.8,0.3 0.2,0.2 0.3,0.4 0.3,0.7 v 0 h -0.3 c 0,-0.2 -0.1,-0.4 -0.3,-0.5 -0.1,-0.1 -0.4,-0.2 -0.6,-0.2 -0.3,0 -0.5,0.1 -0.7,0.3 -0.2,0.2 -0.3,0.5 -0.3,0.8 v 0.6 c 0,0.3 0.1,0.6 0.3,0.8 0.2,0.2 0.4,0.3 0.7,0.3 0.2,0 0.4,0 0.6,-0.1 0.2,-0.1 0.3,-0.1 0.3,-0.2 v -0.9 H 288 V 296 h 1.1 v 1.3 z"
                   class="st2" />
              </g>
              <g
                 id="g260"
                 class="st13">
                <path
                   id="path256"
                   d="m 220.1,269.7 c 0,1 -0.8,1.7 -1.7,1.7 h -10 c -1,0 -1.7,-0.8 -1.7,-1.7 v -9.8 c 0,-1 0.8,-1.7 1.7,-1.7 h 10 c 1,0 1.7,0.8 1.7,1.7 z"
                   class="st20" />
                <path
                   id="path258"
                   d="m 216.3,266.6 c 0,0 0,-3.7 0,-4.7 0,-0.1 -0.1,-0.3 -0.3,-0.3 h -0.6 l -3.3,0.4 -0.6,0.1 c -0.1,0 -0.2,0.1 -0.2,0.3 v 3.7 c -0.2,-0.1 -0.4,-0.1 -0.6,0 -0.7,0.1 -1.3,0.6 -1.2,1.2 0.1,0.6 0.7,1 1.5,0.8 0.7,-0.1 1.3,-0.6 1.2,-1.2 0,0 0,0 0,0 v 0 -3.1 l 3.3,-0.4 v 2.4 c -0.2,0 -0.4,-0.1 -0.6,0 -0.7,0.1 -1.3,0.6 -1.2,1.2 0.1,0.6 0.7,0.9 1.5,0.8 0.7,0 1.2,-0.6 1.1,-1.2 z"
                   class="st2" />
              </g>
              <g
                 id="g266"
                 class="st13">
                <path
                   id="path262"
                   d="m 328.3,301 c 0,1 -0.8,1.7 -1.7,1.7 h -10 c -1,0 -1.7,-0.8 -1.7,-1.7 v -9.8 c 0,-1 0.8,-1.7 1.7,-1.7 h 10 c 1,0 1.7,0.8 1.7,1.7 z"
                   class="st20" />
                <path
                   id="path264"
                   d="m 324.5,297.9 c 0,0 0,-3.7 0,-4.7 0,-0.1 -0.1,-0.3 -0.3,-0.3 h -0.6 l -3.3,0.4 -0.6,0.1 c -0.1,0 -0.2,0.1 -0.2,0.3 v 3.7 c -0.2,-0.1 -0.4,-0.1 -0.6,0 -0.7,0.1 -1.3,0.6 -1.2,1.2 0.1,0.6 0.7,1 1.5,0.8 0.7,-0.1 1.3,-0.6 1.2,-1.2 0,0 0,0 0,0 v 0 -3.1 l 3.3,-0.4 v 2.4 c -0.2,0 -0.4,-0.1 -0.6,0 -0.7,0.1 -1.3,0.6 -1.2,1.2 0.1,0.6 0.7,0.9 1.5,0.8 0.6,-0.1 1.2,-0.6 1.1,-1.2 z"
                   class="st2" />
              </g>
              <g
                 id="g272"
                 class="st13">
                <path
                   id="path268"
                   d="m 292.2,329.2 c 0,1 -0.8,1.7 -1.7,1.7 h -10 c -1,0 -1.7,-0.8 -1.7,-1.7 v -9.8 c 0,-1 0.8,-1.7 1.7,-1.7 h 10 c 1,0 1.7,0.8 1.7,1.7 z"
                   class="st20" />
                <path
                   id="path270"
                   d="m 288.4,326.1 c 0,0 0,-3.7 0,-4.7 0,-0.1 -0.1,-0.3 -0.3,-0.3 h -0.6 l -3.3,0.4 -0.6,0.1 c -0.1,0 -0.2,0.1 -0.2,0.3 v 3.7 c -0.2,0 -0.4,-0.1 -0.6,0 -0.7,0.1 -1.3,0.6 -1.2,1.2 0.1,0.6 0.7,0.9 1.5,0.9 0.7,-0.1 1.3,-0.6 1.2,-1.2 0,0 0,0 0,0 v 0 -3.1 l 3.3,-0.4 v 2.4 c -0.2,0 -0.4,-0.1 -0.6,0 -0.7,0.1 -1.3,0.6 -1.2,1.2 0.1,0.6 0.7,0.9 1.5,0.8 0.7,-0.2 1.2,-0.8 1.1,-1.3 z"
                   class="st2" />
              </g>
              <g
                 id="g278"
                 class="st13">
                <path
                   id="path274"
                   d="m 328.3,269.7 c 0,1 -0.8,1.7 -1.7,1.7 h -10 c -1,0 -1.7,-0.8 -1.7,-1.7 v -9.8 c 0,-1 0.8,-1.7 1.7,-1.7 h 10 c 1,0 1.7,0.8 1.7,1.7 z"
                   class="st21" />
                <path
                   id="path276"
                   d="m 325.7,267.3 h -1.4 c 0.7,-0.7 1.1,-1.6 1.1,-2.6 0,-2 -1.7,-3.7 -3.7,-3.7 -2,0 -3.7,1.7 -3.7,3.7 0,2 1.7,3.7 3.7,3.7 0.9,0 1.7,-0.3 2.4,-0.9 h 1.7 v -0.2 z m -5.9,-1.6 c -0.5,0 -0.9,-0.4 -0.9,-0.9 0,-0.5 0.4,-0.9 0.9,-0.9 0.5,0 0.9,0.4 0.9,0.9 0,0.5 -0.4,0.9 -0.9,0.9 z m 1.9,2.1 c -0.5,0 -0.9,-0.4 -0.9,-0.9 0,-0.5 0.4,-0.9 0.9,-0.9 0.5,0 0.9,0.4 0.9,0.9 0,0.5 -0.4,0.9 -0.9,0.9 z m 0,-4.2 c -0.5,0 -0.9,-0.4 -0.9,-0.9 0,-0.5 0.4,-0.9 0.9,-0.9 0.5,0 0.9,0.4 0.9,0.9 0,0.5 -0.4,0.9 -0.9,0.9 z m 1.3,1.2 c 0,-0.5 0.4,-0.9 0.9,-0.9 0.5,0 0.9,0.4 0.9,0.9 0,0.5 -0.4,0.9 -0.9,0.9 -0.5,0 -0.9,-0.4 -0.9,-0.9 z m -1.3,0.5 c -0.3,0 -0.6,-0.2 -0.6,-0.6 0,-0.3 0.2,-0.6 0.6,-0.6 0.3,0 0.6,0.2 0.6,0.6 -0.1,0.3 -0.3,0.6 -0.6,0.6 z"
                   class="st2" />
              </g>
            </g>
            <g
               id="g286">
              <path
                 id="path282"
                 d="m 247.3,296.3 v 1.4 H 247 v -3.3 h 1.1 c 0.3,0 0.6,0.1 0.8,0.3 0.2,0.2 0.3,0.4 0.3,0.7 0,0.3 -0.1,0.5 -0.3,0.7 -0.2,0.2 -0.5,0.3 -0.8,0.3 h -0.8 z m 0,-0.2 h 0.9 c 0.3,0 0.5,-0.1 0.6,-0.2 0.1,-0.1 0.2,-0.3 0.2,-0.5 0,-0.2 -0.1,-0.4 -0.2,-0.5 -0.1,-0.1 -0.3,-0.2 -0.6,-0.2 h -0.9 z"
                 class="st2" />
              <path
                 id="path284"
                 d="m 251.8,296.9 c 0,-0.2 -0.1,-0.3 -0.2,-0.4 -0.1,-0.1 -0.4,-0.2 -0.7,-0.3 -0.4,-0.1 -0.6,-0.2 -0.8,-0.4 -0.2,-0.1 -0.3,-0.3 -0.3,-0.6 0,-0.3 0.1,-0.5 0.3,-0.6 0.2,-0.2 0.5,-0.2 0.8,-0.2 0.3,0 0.6,0.1 0.8,0.3 0.2,0.2 0.3,0.4 0.3,0.7 v 0 h -0.2 c 0,-0.2 -0.1,-0.4 -0.2,-0.5 -0.2,-0.1 -0.4,-0.2 -0.6,-0.2 -0.3,0 -0.5,0.1 -0.6,0.2 -0.1,0.1 -0.2,0.3 -0.2,0.4 0,0.2 0.1,0.3 0.2,0.4 0.1,0.1 0.4,0.2 0.7,0.3 0.4,0.1 0.6,0.2 0.8,0.4 0.2,0.2 0.3,0.4 0.3,0.6 0,0.3 -0.1,0.5 -0.3,0.6 -0.2,0.2 -0.5,0.2 -0.8,0.2 -0.3,0 -0.6,-0.1 -0.9,-0.2 -0.2,-0.2 -0.4,-0.4 -0.4,-0.7 v 0 h 0.2 c 0,0.3 0.1,0.4 0.3,0.6 0.2,0.1 0.4,0.2 0.7,0.2 0.3,0 0.5,-0.1 0.6,-0.2 0.1,-0.3 0.2,-0.4 0.2,-0.6 z"
                 class="st2" />
            </g>
          </g>
          <rect
             id="rect290"
             height="2.2"
             width="15.4"
             class="st22"
             y="228.60001"
             x="165.3" />
          <g
             id="g294">
            <path
               id="path292"
               d="m 159.9,227.5 v 0 c -0.5,-1 -1.5,-1.8 -2.7,-1.8 -1.5,0 -2.8,1.2 -2.9,2.7 -1,0.1 -1.9,0.9 -1.9,2 0,1.1 0.9,2 2,2 h 1.6 c 0.1,0 0.8,0 0.8,0 v -2.3 h -1 l 1.6,-1.9 1.6,1.9 h -1 v 2.3 h 2 c 1.3,0 2.3,-1 2.3,-2.3 v -0.3 c -0.1,-1.3 -1.2,-2.3 -2.4,-2.3 z"
               class="st4" />
          </g>
        </g>
        <g
           id="g304">
          <path
             id="path298"
             d="m 157.5,220.6 c 0,-1.1 -0.9,-2 -2,-2 -1.1,0 -2,0.9 -2,2 0,1.1 0.9,2 2,2 1.1,0 2,-0.9 2,-2 z"
             class="st17" />
          <path
             id="path300"
             d="m 164.5,220.6 c 0,-1.1 -0.9,-2 -2,-2 -1.1,0 -2,0.9 -2,2 0,1.1 0.9,2 2,2 1.1,0 2,-0.9 2,-2 z"
             class="st23" />
          <path
             id="path302"
             d="m 171.9,220.6 c 0,-1.1 -0.9,-2 -2,-2 -1.1,0 -2,0.9 -2,2 0,1.1 0.9,2 2,2 1.1,0 2,-0.9 2,-2 z"
             class="st24" />
        </g>
      </g>
      <rect
         id="rect308"
         height="0.60000002"
         width="4.6999998"
         class="st2"
         y="228"
         x="196.7" />
      <rect
         id="rect310"
         height="0.60000002"
         width="10.1"
         class="st2"
         y="228"
         x="201.8" />
      <rect
         id="rect312"
         height="0.60000002"
         width="10.1"
         class="st2"
         y="228"
         x="223.7" />
      <rect
         id="rect314"
         height="0.60000002"
         width="10.1"
         class="st2"
         y="228"
         x="243.3" />
    </g>
    <g
       id="ICONS_3_">
      <g
         id="g323">
        <path
           id="path317"
           d="m 154.6,166.1 c 0,0 -1,-0.2 -2.6,-0.3 l 0.1,-1.1 c 1.7,0.1 2.7,0.3 2.7,0.3 z"
           class="st2" />
        <path
           id="path319"
           d="m 247.5,225.3 c -1.5,0 -3.1,-0.1 -4.6,-0.2 L 243,224 c 1.8,0.1 3.6,0.2 5.3,0.2 v 1.1 c -0.2,0 -0.5,0 -0.8,0 z m 6.3,-0.3 -0.1,-1.1 c 1.8,-0.2 3.6,-0.5 5.3,-0.8 l 0.2,1.1 c -1.8,0.3 -3.6,0.6 -5.4,0.8 z m -16.3,-0.5 c -1.9,-0.3 -3.7,-0.6 -5.3,-1 l 0.2,-1.1 c 1.6,0.4 3.4,0.7 5.3,1 z m 26.9,-1.8 -0.3,-1 c 1.7,-0.6 3.4,-1.2 5,-2 l 0.5,1 c -1.7,0.7 -3.4,1.4 -5.2,2 z m -37.5,-0.6 c -1.9,-0.6 -3.6,-1.4 -5,-2.2 l 0.5,-0.9 c 1.4,0.8 3,1.5 4.9,2.1 z m 47.4,-4 -0.6,-0.9 c 1.5,-1 3,-2 4.3,-3.2 l 0.7,0.8 c -1.3,1.2 -2.8,2.3 -4.4,3.3 z m -56.8,-1.7 c -1.1,-1.4 -1.6,-3 -1.6,-4.7 0,-0.2 0,-0.5 0,-0.7 l 1.1,0.1 c 0,0.2 0,0.4 0,0.6 0,1.4 0.5,2.8 1.4,4 z m 65,-5.6 -0.8,-0.7 c 1.1,-1.4 2.1,-2.9 2.8,-4.5 l 1,0.4 c -0.9,1.7 -1.8,3.3 -3,4.8 z m -149.4,-3.2 c -1.9,-0.1 -3.8,-0.2 -5.4,-0.4 l 0.1,-1.1 c 1.6,0.2 3.4,0.3 5.3,0.4 z m 5.4,0 v -1.1 c 1.7,-0.1 3.5,-0.2 5.4,-0.3 l 0.1,1.1 c -2,0.1 -3.8,0.3 -5.5,0.3 z m 10.8,-0.9 -0.1,-1.1 c 1.7,-0.2 3.5,-0.5 5.3,-0.8 l 0.2,1.1 c -1.8,0.3 -3.7,0.6 -5.4,0.8 z m -27.1,-0.5 c -1.9,-0.5 -3.7,-1.2 -5.1,-2 l 0.5,-0.9 c 1.4,0.8 3,1.4 4.9,1.9 z m 37.8,-1.2 -0.2,-1.1 c 1.8,-0.3 3.5,-0.7 5.3,-1.1 l 0.2,1.1 c -1.7,0.4 -3.5,0.8 -5.3,1.1 z m 10.6,-2.3 -0.3,-1 c 0.9,-0.2 1.4,-0.4 1.6,-0.4 0.3,-0.2 1.4,-0.8 3.1,-1.8 l 0.5,0.9 c -2,1.1 -3.2,1.8 -3.2,1.8 h -0.1 -0.1 c 0.2,0 -0.4,0.2 -1.5,0.5 z m 116.3,-1.9 -1.1,-0.1 c 0.1,-0.7 0.1,-1.4 0.1,-2.1 0,-1 -0.1,-2 -0.3,-3.1 l 1.1,-0.2 c 0.2,1.1 0.3,2.2 0.3,3.3 0.1,0.7 0,1.4 -0.1,2.2 z m -174.1,-0.2 c -1.1,-1.5 -1.8,-3.2 -2.1,-5.2 l 1.1,-0.2 c 0.3,1.8 0.9,3.3 1.9,4.7 z m 67.6,-2.8 -0.5,-1 c 1.6,-0.8 3.2,-1.7 4.8,-2.5 l 0.5,1 c -1.6,0.8 -3.3,1.6 -4.8,2.5 z m 9.6,-4.9 -0.5,-1 c 1.6,-0.8 3.3,-1.6 4.9,-2.3 l 0.4,1 c -1.5,0.8 -3.2,1.6 -4.8,2.3 z m 93.9,-2.3 c -0.8,-1.5 -1.9,-2.9 -3.1,-4.2 l 0.8,-0.7 c 1.3,1.4 2.4,2.9 3.3,4.4 z m -172.2,-0.6 -1.1,-0.1 c 0.1,-1.9 0.4,-3.7 0.8,-5.4 l 1,0.3 c -0.4,1.6 -0.6,3.4 -0.7,5.2 z m 88.2,-1.5 -0.4,-1 c 1.7,-0.7 3.4,-1.4 5,-2.1 l 0.4,1 c -1.7,0.7 -3.4,1.3 -5,2.1 z m 10,-4.1 -0.4,-1 c 1.7,-0.6 3.4,-1.3 5.1,-1.8 l 0.4,1 c -1.7,0.6 -3.4,1.2 -5.1,1.8 z m 66.9,-1.5 c -1.4,-1 -2.9,-2 -4.5,-2.8 l 0.5,-0.9 c 1.7,0.9 3.2,1.9 4.6,2.9 z m -56.7,-2 -0.3,-1 c 1.8,-0.5 3.5,-1.1 5.2,-1.5 l 0.3,1 c -1.8,0.5 -3.5,1 -5.2,1.5 z m -105.8,-1 -1,-0.5 c 0.8,-1.6 1.9,-3.2 3.1,-4.6 l 0.8,0.7 c -1.1,1.3 -2.1,2.8 -2.9,4.4 z m 116.1,-1.8 -0.2,-1 c 1.8,-0.4 3.6,-0.8 5.3,-1.1 l 0.2,1.1 c -1.7,0.2 -3.5,0.5 -5.3,1 z m 37,-0.3 c -1.6,-0.6 -3.3,-1.1 -5.1,-1.5 l 0.2,-1.1 c 1.8,0.4 3.6,0.9 5.3,1.5 z M 241,176.1 240.9,175 c 1.8,-0.2 3.7,-0.4 5.4,-0.6 l 0.1,1.1 c -1.8,0.2 -3.6,0.3 -5.4,0.6 z m 16,-0.5 c -1.7,-0.2 -3.5,-0.2 -5.3,-0.3 v -1.1 c 1.9,0 3.7,0.1 5.4,0.3 z m -135.9,-3.6 -0.6,-0.9 c 1.4,-1 3,-1.9 4.8,-2.7 l 0.4,1 c -1.7,0.7 -3.2,1.6 -4.6,2.6 z m 9.6,-4.5 -0.3,-1 c 1.7,-0.5 3.5,-0.9 5.3,-1.2 l 0.2,1.1 c -1.8,0.3 -3.6,0.7 -5.2,1.1 z m 10.5,-1.8 -0.1,-1.1 c 1.6,-0.1 3.2,-0.2 4.9,-0.2 0.2,0 0.4,0 0.5,0 v 1.1 c -0.2,0 -0.4,0 -0.5,0 -1.6,0.1 -3.2,0.1 -4.8,0.2 z"
           class="st2" />
        <path
           id="path321"
           d="m 218.8,206.4 -0.9,-0.6 c 0.9,-1.3 1.7,-2.1 1.8,-2.2 l 0.7,0.8 c 0.1,0 -0.7,0.8 -1.6,2 z"
           class="st2" />
      </g>
      <g
         id="g331">
        <path
           id="path325"
           d="m 81.5,259 c -0.4,-0.3 -1.1,-0.9 -1.5,-0.6 l -0.4,-0.8 c 0.7,-0.4 1.6,-0.1 2.6,0.8 z"
           class="st2" />
        <path
           id="path327"
           d="m 133.2,339.9 c -1.3,0 -2.5,-0.2 -3.7,-0.6 l 0.3,-0.9 c 1.4,0.5 2.9,0.7 4.3,0.5 l 0.1,0.9 c -0.3,0.1 -0.7,0.1 -1,0.1 z m 5.5,-1.3 -0.4,-0.8 c 1.3,-0.6 2.5,-1.4 3.8,-2.4 l 0.6,0.7 c -1.3,1 -2.6,1.9 -4,2.5 z m -13.4,-1.5 c -1.3,-0.9 -2.5,-1.9 -3.6,-3 l 0.7,-0.6 c 1,1.1 2.2,2 3.4,2.9 z m 20.7,-4.4 -0.7,-0.6 c 0.9,-1.1 1.8,-2.3 2.7,-3.7 l 0.8,0.5 c -0.9,1.4 -1.8,2.7 -2.8,3.8 z m -27.1,-2.4 c -0.8,-1.3 -1.4,-2.7 -2,-4.3 l 0.9,-0.3 c 0.5,1.5 1.1,2.8 1.9,4.1 z m 32.1,-5.4 -0.8,-0.4 c 0.6,-1.3 1.2,-2.8 1.8,-4.2 l 0.9,0.3 c -0.6,1.5 -1.2,2.9 -1.9,4.3 z m -35.2,-3.4 c -0.2,-1.5 -0.4,-3 -0.4,-4.6 h 0.9 c 0,1.6 0.2,3.1 0.4,4.5 z m 38.4,-5.4 -0.9,-0.2 c 0.4,-1.5 0.7,-3 1,-4.5 l 0.9,0.2 c -0.3,1.5 -0.6,3.1 -1,4.5 z m -67.3,-0.8 -0.1,-0.9 c 1.6,-0.1 3,-0.5 4.2,-1.2 l 0.5,0.8 c -1.3,0.7 -2.9,1.2 -4.6,1.3 z m -4.7,-0.5 c -1.5,-0.5 -2.9,-1.3 -4.1,-2.4 l 0.6,-0.7 c 1.1,1 2.4,1.8 3.8,2.2 z m 34.2,-2.5 -0.9,-0.1 c 0.1,-1.5 0.3,-3.1 0.6,-4.6 l 0.9,0.2 c -0.2,1.5 -0.4,3 -0.6,4.5 z m -21.5,-1.7 -0.8,-0.5 c 0.7,-1.1 1.2,-2.5 1.6,-4.2 l 0.9,0.2 c -0.5,1.8 -1,3.3 -1.7,4.5 z M 75.3,308.5 C 74.7,307.1 74.2,305.6 74,304 l 0.9,-0.1 c 0.2,1.5 0.6,3 1.2,4.3 z m 80.5,-1.5 -0.9,-0.1 c 0.1,-1.5 0.2,-2.9 0.2,-4.4 v -0.2 h 0.9 v 0.2 c -0.1,1.5 -0.1,3 -0.2,4.5 z M 97,301.5 h -0.9 c 0,-0.3 0,-0.6 0,-0.9 0,-1.2 -0.1,-2.4 -0.2,-3.7 l 0.9,-0.1 c 0.1,1.3 0.2,2.6 0.2,3.8 0,0.3 0,0.6 0,0.9 z M 74.9,299.4 74,299.3 c 0.2,-1.6 0.6,-3.1 1.2,-4.6 L 76,295 c -0.6,1.4 -1,2.9 -1.1,4.4 z m 79.9,-1.6 c -0.1,-1.5 -0.3,-3 -0.6,-4.5 l 0.9,-0.2 c 0.3,1.5 0.5,3.1 0.6,4.6 z m -59.5,-5.4 c -0.2,-1.4 -0.6,-3 -0.9,-4.5 l 0.9,-0.2 c 0.4,1.6 0.7,3.1 0.9,4.5 z m -17.1,-1.2 -0.8,-0.5 c 0.9,-1.2 1.8,-2.4 2.9,-3.6 l 0.7,0.6 c -1,1.1 -1.9,2.3 -2.8,3.5 z m 74.9,-2.4 c -0.4,-1.5 -0.9,-2.9 -1.4,-4.3 l 0.9,-0.3 c 0.6,1.4 1.1,2.9 1.5,4.4 z m -68.8,-4.5 -0.6,-0.7 c 1.1,-1 2.3,-2.1 3.5,-3.1 l 0.6,0.7 c -1.3,1.1 -2.4,2.1 -3.5,3.1 z m 8.9,-0.8 c -0.4,-1.4 -0.9,-2.9 -1.4,-4.4 l 0.9,-0.3 c 0.5,1.5 1,3 1.4,4.4 z m 56.6,-3.1 c -0.7,-1.4 -1.4,-2.7 -2.2,-4 l 0.8,-0.5 c 0.8,1.3 1.6,2.7 2.3,4 z m -58.4,-1.8 -0.5,-0.8 c 1.2,-0.9 2.5,-1.8 3.8,-2.6 l 0.5,0.8 c -1.3,0.8 -2.6,1.7 -3.8,2.6 z m -1.1,-3.8 c -0.6,-1.4 -1.2,-2.9 -1.8,-4.2 l 0.8,-0.4 c 0.6,1.4 1.2,2.8 1.8,4.3 z m 8.8,-1.1 -0.5,-0.8 c 1.3,-0.8 2.7,-1.5 4.1,-2.1 l 0.4,0.8 c -1.3,0.6 -2.7,1.3 -4,2.1 z m 45.9,-1 c -0.5,-0.7 -1.1,-1.4 -1.6,-2 -0.4,-0.5 -0.9,-0.9 -1.4,-1.4 l 0.6,-0.7 c 0.5,0.5 1,0.9 1.4,1.5 0.6,0.7 1.1,1.4 1.7,2 z m -37.7,-3 -0.4,-0.9 c 1.4,-0.6 2.9,-1.2 4.3,-1.7 l 0.3,0.9 c -1.3,0.5 -2.7,1.1 -4.2,1.7 z m 30.9,-2.9 c -1.3,-0.6 -2.7,-1.1 -4.3,-1.4 l 0.2,-0.9 c 1.6,0.3 3.1,0.8 4.5,1.5 z m -22.2,-0.1 -0.2,-0.9 c 1.5,-0.4 3.1,-0.8 4.5,-1 l 0.2,0.9 c -1.5,0.2 -3,0.6 -4.5,1 z m -29.5,-0.2 c -0.8,-1.5 -1.5,-2.8 -2.3,-4 L 85,262 c 0.7,1.2 1.5,2.5 2.3,4 z m 38.5,-1.5 -0.1,-0.9 c 1.6,-0.1 3.2,-0.2 4.7,-0.1 v 0.9 c -1.5,-0.1 -3.1,0 -4.6,0.1 z"
           class="st2" />
        <path
           id="path329"
           d="m 118.1,303.3 -0.9,-0.2 c 0.4,-1.4 0.7,-2.2 0.7,-2.2 l 0.9,0.3 c -0.1,-0.1 -0.4,0.7 -0.7,2.1 z"
           class="st2" />
      </g>
      <g
         id="g339">
        <path
           id="path333"
           d="m 384.8,279 c -1.1,-0.3 -1.9,-0.8 -2.6,-1.3 l 0.7,-0.8 c 0.5,0.5 1.3,0.8 2.2,1.1 z"
           class="st2" />
        <path
           id="path335"
           d="m 348.4,288.3 c -0.7,-1.6 -1.4,-3.3 -2,-5.2 l 1,-0.3 c 0.6,1.8 1.2,3.5 1.9,5 z m 42,-9 -0.1,-1.1 c 1.7,-0.1 3.5,-0.5 5.2,-1 l 0.3,1 c -1.8,0.6 -3.7,1 -5.4,1.1 z M 345,277.8 c -0.4,-1.7 -0.7,-3.5 -0.9,-5.4 l 1.1,-0.1 c 0.2,1.8 0.5,3.6 0.9,5.3 z m 56,-1.5 -0.5,-1 c 1.8,-0.9 3.2,-1.9 4.4,-2.9 l 0.7,0.8 c -1.1,1.1 -2.7,2.2 -4.6,3.1 z m 10.2,-8 -0.1,-1.1 c 1.8,-0.1 3.6,-0.3 5.3,-0.7 l 0.2,1.1 c -1.6,0.3 -3.5,0.6 -5.4,0.7 z m -2.7,-0.1 -1.1,-0.1 c 0,-0.1 0,-0.2 0,-0.3 0,-0.4 0,-0.8 0,-1.3 0,-0.6 0,-1.3 0,-2 0,-0.6 0,-1.2 0,-1.7 l 1.1,-0.1 c 0,0.6 0.1,1.1 0.1,1.8 0,0.7 0,1.4 0,2 0,0.5 0,0.9 0,1.3 -0.1,0.1 -0.1,0.3 -0.1,0.4 z m -2.8,0 c -2,-0.2 -3.9,-0.5 -5.5,-1 l 0.3,-1 c 1.5,0.5 3.3,0.8 5.2,1 z m -62,-1.3 c -0.1,-1.8 -0.2,-3.6 -0.2,-5.5 h 1.1 c 0,1.8 0.1,3.7 0.2,5.4 z m 78.3,-1 -0.4,-1 c 0.2,-0.1 0.4,-0.2 0.6,-0.3 1.4,-0.7 2.7,-1.5 3.9,-2.5 l 0.7,0.8 c -1.3,1 -2.7,1.9 -4.2,2.7 -0.2,0.1 -0.4,0.2 -0.6,0.3 z m -26.6,-1.8 c -0.1,-0.2 -0.2,-0.5 -0.3,-0.7 -0.1,-0.4 -0.2,-0.7 -0.2,-1.1 0,-1.2 0.6,-2.6 1.6,-3.8 l 0.8,0.7 c -0.9,1 -1.4,2.2 -1.4,3.1 0,0.3 0,0.5 0.1,0.8 0.1,0.2 0.1,0.3 0.2,0.5 z m 35.1,-5.3 -0.9,-0.6 c 1,-1.4 1.8,-3 2.5,-4.7 l 1,0.4 c -0.7,1.8 -1.6,3.5 -2.6,4.9 z M 406,257.9 c -0.9,-1.2 -2.4,-1.6 -4.4,-1.2 l -0.2,-1.1 c 2.4,-0.5 4.3,0 5.5,1.6 z m -61.3,-1.9 -1.1,-0.1 c 0.1,-1.8 0.2,-3.6 0.4,-5.5 l 1.1,0.1 c -0.2,1.9 -0.3,3.7 -0.4,5.5 z m 90.1,-7.4 -1.1,-0.2 c 0.4,-1.7 0.6,-3.5 0.7,-5.3 l 1.1,0.1 c -0.1,1.9 -0.4,3.7 -0.7,5.4 z m -89.1,-3.4 -1.1,-0.1 c 0.3,-1.8 0.5,-3.6 0.9,-5.4 l 1.1,0.2 c -0.3,1.7 -0.6,3.5 -0.9,5.3 z m 88.8,-7.5 c -0.1,-1.8 -0.3,-3.6 -0.5,-5.4 l 1.1,-0.2 c 0.3,1.8 0.5,3.7 0.5,5.5 z m -86.8,-3.2 -1.1,-0.2 c 0.4,-1.8 0.9,-3.6 1.4,-5.3 l 1,0.3 c -0.4,1.7 -0.9,3.4 -1.3,5.2 z m 85.2,-7.5 c -0.4,-1.7 -1,-3.5 -1.6,-5.2 l 1,-0.4 c 0.6,1.7 1.1,3.5 1.6,5.3 z m -82.2,-2.9 -1,-0.4 c 0.6,-1.8 1.3,-3.5 2,-5.1 l 1,0.4 c -0.7,1.6 -1.3,3.3 -2,5.1 z m 78.6,-7.2 c -0.8,-1.7 -1.7,-3.2 -2.6,-4.7 l 0.9,-0.6 c 0.9,1.5 1.8,3.1 2.6,4.8 z m -74.2,-2.6 -0.9,-0.5 c 0.9,-1.6 1.9,-3.2 3,-4.6 l 0.9,0.6 c -1.1,1.3 -2,2.9 -3,4.5 z m 68.5,-6.5 c -1.2,-1.4 -2.4,-2.7 -3.7,-3.8 l 0.7,-0.8 c 1.3,1.1 2.6,2.5 3.9,4 z m -62.1,-2.3 -0.8,-0.7 c 1.3,-1.4 2.6,-2.7 4,-3.8 l 0.7,0.8 c -1.4,1.1 -2.7,2.4 -3.9,3.7 z m 54,-4.7 c -1.5,-1 -3.1,-1.9 -4.7,-2.7 l 0.5,-1 c 1.7,0.8 3.3,1.7 4.8,2.7 z m -45.9,-2.2 -0.6,-0.9 c 1.6,-1 3.2,-1.9 4.9,-2.6 l 0.4,1 c -1.5,0.7 -3.1,1.6 -4.7,2.5 z m 36.3,-2.6 c -1.7,-0.6 -3.4,-1.2 -5.1,-1.6 l 0.3,-1 c 1.8,0.4 3.5,1 5.3,1.6 z m -26.5,-1.7 -0.3,-1 c 1.8,-0.5 3.6,-0.8 5.4,-1.1 l 0.1,1.1 c -1.7,0.2 -3.5,0.5 -5.2,1 z m 16,-1 c -1.8,-0.2 -3.6,-0.4 -5.4,-0.4 v -1.1 c 1.8,0 3.7,0.1 5.5,0.4 z"
           class="st2" />
        <path
           id="path337"
           d="m 352.9,295.3 c -0.6,-0.7 -1.2,-1.4 -1.7,-2.2 l 0.9,-0.6 c 0.5,0.7 1.1,1.4 1.6,2.1 z"
           class="st2" />
      </g>
      <g
         id="g425">
        <g
           id="g355">
          <rect
             id="rect341"
             height="33.400002"
             width="29.799999"
             class="st2"
             y="162.8"
             x="137.7" />
          <g
             id="g345">
            <path
               id="path343"
               d="m 162.1,186.3 c 0,1.3 -1.1,2.4 -2.4,2.4 h -14 c -1.3,0 -2.4,-1.1 -2.4,-2.4 v -13.7 c 0,-1.3 1.1,-2.4 2.4,-2.4 h 14 c 1.3,0 2.4,1.1 2.4,2.4 z"
               class="st17" />
          </g>
          <g
             id="g353">
            <path
               id="path347"
               d="m 148.3,179.8 v 1.9 h -0.4 v -4.6 h 1.6 c 0.5,0 0.9,0.1 1.1,0.4 0.3,0.2 0.4,0.6 0.4,1 0,0.4 -0.1,0.7 -0.4,1 -0.3,0.2 -0.6,0.4 -1.1,0.4 h -1.2 z m 0,-0.3 h 1.2 c 0.4,0 0.7,-0.1 0.9,-0.3 0.2,-0.2 0.3,-0.4 0.3,-0.7 0,-0.3 -0.1,-0.5 -0.3,-0.7 -0.2,-0.2 -0.5,-0.3 -0.9,-0.3 h -1.2 z"
               class="st2" />
            <path
               id="path349"
               d="m 151.9,181.7 v -4.6 h 1.3 c 0.6,0 1,0.2 1.4,0.6 0.4,0.4 0.5,0.9 0.5,1.4 v 0.6 c 0,0.6 -0.2,1.1 -0.5,1.4 -0.4,0.4 -0.8,0.6 -1.4,0.6 z m 0.3,-4.2 v 3.9 h 1 c 0.5,0 0.8,-0.2 1.1,-0.5 0.3,-0.3 0.4,-0.7 0.4,-1.2 v -0.6 c 0,-0.5 -0.1,-0.9 -0.4,-1.2 -0.3,-0.3 -0.7,-0.5 -1.1,-0.5 h -1 z"
               class="st2" />
            <path
               id="path351"
               d="m 158.7,179.6 h -2.2 v 2.2 h -0.4 v -4.6 h 2.9 v 0.3 h -2.6 v 1.8 h 2.2 v 0.3 z"
               class="st2" />
          </g>
        </g>
        <g
           id="g371">
          <rect
             id="rect357"
             height="27"
             width="22.700001"
             class="st2"
             y="233.89999"
             x="78" />
          <g
             id="g361">
            <path
               id="path359"
               d="m 96.1,252.2 c 0,1 -0.8,1.7 -1.7,1.7 h -10 c -1,0 -1.7,-0.8 -1.7,-1.7 v -9.8 c 0,-1 0.8,-1.7 1.7,-1.7 h 10 c 1,0 1.7,0.8 1.7,1.7 z"
               class="st15" />
          </g>
          <g
             id="g369">
            <path
               id="path363"
               d="m 86.9,245.6 h 0.3 v 2.4 c 0,0.3 -0.1,0.5 -0.3,0.7 -0.2,0.2 -0.4,0.3 -0.7,0.3 -0.3,0 -0.6,-0.1 -0.7,-0.2 -0.2,-0.2 -0.3,-0.4 -0.3,-0.7 v 0 h 0.3 c 0,0.2 0.1,0.4 0.2,0.5 0.1,0.1 0.3,0.2 0.5,0.2 0.2,0 0.4,-0.1 0.5,-0.2 0.1,-0.1 0.2,-0.3 0.2,-0.5 z"
               class="st2" />
            <path
               id="path365"
               d="m 88.3,247.5 v 1.4 H 88 v -3.3 h 1.1 c 0.3,0 0.6,0.1 0.8,0.3 0.2,0.2 0.3,0.4 0.3,0.7 0,0.3 -0.1,0.5 -0.3,0.7 -0.2,0.2 -0.5,0.3 -0.8,0.3 h -0.8 z m 0,-0.3 h 0.9 c 0.3,0 0.5,-0.1 0.6,-0.2 0.1,-0.1 0.2,-0.3 0.2,-0.5 0,-0.2 -0.1,-0.4 -0.2,-0.5 -0.1,-0.1 -0.3,-0.2 -0.6,-0.2 h -0.9 z"
               class="st2" />
            <path
               id="path367"
               d="m 93.2,248.4 c -0.1,0.1 -0.2,0.2 -0.4,0.3 -0.2,0.1 -0.4,0.1 -0.7,0.1 -0.4,0 -0.7,-0.1 -0.9,-0.4 -0.2,-0.3 -0.4,-0.6 -0.4,-1 v -0.6 c 0,-0.4 0.1,-0.7 0.3,-1 0.2,-0.3 0.5,-0.4 0.9,-0.4 0.4,0 0.6,0.1 0.8,0.3 0.2,0.2 0.3,0.4 0.3,0.7 v 0 H 93 c 0,-0.2 -0.1,-0.4 -0.3,-0.5 -0.1,-0.1 -0.4,-0.2 -0.6,-0.2 -0.3,0 -0.5,0.1 -0.7,0.3 -0.2,0.2 -0.3,0.5 -0.3,0.8 v 0.6 c 0,0.3 0.1,0.6 0.3,0.8 0.2,0.2 0.4,0.3 0.7,0.3 0.2,0 0.4,0 0.6,-0.1 0.2,-0.1 0.3,-0.1 0.3,-0.2 v -0.9 h -0.9 v -0.2 h 1.1 z"
               class="st2" />
          </g>
        </g>
        <g
           id="g381">
          <rect
             id="rect373"
             height="32.200001"
             width="28.799999"
             class="st2"
             y="244"
             x="360.10001" />
          <g
             id="g379">
            <path
               id="path375"
               d="m 384.3,266.9 c 0,1.3 -1.1,2.4 -2.4,2.4 h -14 c -1.3,0 -2.4,-1.1 -2.4,-2.4 v -13.7 c 0,-1.3 1.1,-2.4 2.4,-2.4 h 14 c 1.3,0 2.4,1.1 2.4,2.4 z"
               class="st20" />
            <path
               id="path377"
               d="m 378.9,262.5 c 0,0 0,-5.2 0,-6.6 0,-0.2 -0.2,-0.4 -0.4,-0.4 h -0.8 l -4.6,0.5 -0.9,0.1 c -0.2,0 -0.3,0.2 -0.3,0.4 v 5.1 c -0.3,-0.1 -0.6,-0.1 -0.9,-0.1 -1,0.1 -1.8,0.9 -1.7,1.7 0.1,0.8 1,1.3 2,1.2 1,-0.1 1.8,-0.9 1.7,-1.7 0,0 0,0 0,0 v 0 -4.3 l 4.6,-0.5 v 3.4 c -0.3,-0.1 -0.6,-0.1 -0.9,0 -1,0.1 -1.8,0.9 -1.7,1.7 0.1,0.8 1,1.3 2,1.2 1.3,-0.1 2.1,-0.9 1.9,-1.7 z"
               class="st2" />
          </g>
        </g>
        <g
           id="g395">
          <rect
             id="rect383"
             height="42.099998"
             width="37.599998"
             class="st2"
             y="297.60001"
             x="115.1" />
          <g
             id="g393">
            <path
               id="path385"
               d="m 145.7,327.2 c 0,1.6 -1.3,3 -3,3 h -17.4 c -1.6,0 -3,-1.3 -3,-3 v -17 c 0,-1.6 1.3,-3 3,-3 h 17.4 c 1.6,0 3,1.3 3,3 z"
               class="st19" />
            <g
               id="g391">
              <path
                 id="path387"
                 d="m 134.8,315.8 c -1.4,0 -2.5,1.1 -2.5,2.5 0,1.4 1.1,2.5 2.5,2.5 1.4,0 2.5,-1.1 2.5,-2.5 0.1,-1.3 -1.1,-2.5 -2.5,-2.5 z"
                 class="st2" />
              <path
                 id="path389"
                 d="m 141.2,321.9 v -6.6 c 0,-1 -0.8,-1.8 -1.8,-1.8 h -1.3 l -0.6,-1.1 h -5.1 l -0.6,1.1 h -1.5 v -0.2 c 0,0 -0.3,-0.1 -1,-0.1 -0.7,0 -1.1,0.1 -1.1,0.1 v 0.3 c -1.1,0.2 -1.9,0.9 -1.9,1.7 v 6.6 c 0,1 0.8,1.8 1.8,1.8 h 11.4 c 1,0 1.7,-0.8 1.7,-1.8 z M 128.3,316 c -0.3,0 -0.5,-0.2 -0.5,-0.5 0,-0.3 0.2,-0.5 0.5,-0.5 0.3,0 0.5,0.2 0.5,0.5 -0.1,0.3 -0.3,0.5 -0.5,0.5 z m 6.5,6.5 c -2.3,0 -4.1,-1.9 -4.1,-4.1 0,-2.3 1.8,-4.1 4.1,-4.1 2.3,0 4.1,1.9 4.1,4.1 0.1,2.3 -1.8,4.1 -4.1,4.1 z"
                 class="st2" />
            </g>
          </g>
        </g>
        <g
           id="g405">
          <rect
             id="rect397"
             height="29"
             width="25.9"
             class="st2"
             y="133.10001"
             x="276.89999" />
          <g
             id="g403">
            <path
               id="path399"
               d="m 298.7,153.8 c 0,1.2 -1,2.2 -2.2,2.2 h -12.8 c -1.2,0 -2.2,-1 -2.2,-2.2 v -12.5 c 0,-1.2 1,-2.2 2.2,-2.2 h 12.8 c 1.2,0 2.2,1 2.2,2.2 z"
               class="st18" />
            <path
               id="path401"
               d="m 294.8,151 c -0.2,-0.6 -1.5,-4.8 -1.5,-4.8 v -0.1 l -3.9,-3.7 c -0.1,-0.1 -0.5,-0.4 -1.3,-0.1 -0.3,0.1 -0.5,0.3 -0.9,0.7 -0.1,0.1 -0.2,0.3 -0.4,0.4 -0.3,0.3 -0.6,0.6 -0.8,0.9 -0.1,0.1 -0.3,0.3 -0.4,0.4 -0.4,0.4 -0.7,0.8 -0.8,1.1 -0.3,0.6 0,1.1 0.2,1.2 l 3.9,3.7 5,1.2 c 0.1,0 0.5,0.2 0.8,-0.1 0.2,-0.3 0.2,-0.5 0.1,-0.8 z m -1.2,-1.7 -1.4,1.5 -2.7,-0.7 0.7,-0.4 c 0,0 0,0 0,0 0.2,-0.1 0.3,-0.1 0.7,-1.5 1.4,-0.5 1.5,-0.7 1.6,-0.9 l 0.3,-0.8 c 0.1,0.5 0.5,1.7 0.8,2.8 z m -6.2,-5.5 c 0.1,-0.1 0.2,-0.3 0.3,-0.4 0.3,-0.3 0.5,-0.5 0.6,-0.5 0.4,-0.1 0.6,0 0.6,0 l 3.3,3.1 -0.4,1 c -0.1,0.1 -0.4,0.2 -1.3,0.6 l -3.6,-3.4 c 0.2,-0.1 0.4,-0.3 0.5,-0.4 z m -1.9,2.6 c 0,0 -0.2,-0.1 0,-0.5 0.1,-0.2 0.5,-0.7 0.7,-0.9 0.1,-0.1 0.2,-0.2 0.4,-0.4 l 3.7,3.4 c -0.2,0.7 -0.3,0.9 -0.3,1 l -0.9,0.5 z m 8.7,4.8 -1.2,-0.3 0.9,-0.9 c 0.1,0.6 0.2,1 0.3,1.2 z"
               class="st2" />
          </g>
        </g>
        <g
           id="g423">
          <rect
             id="rect407"
             height="19.4"
             width="21.5"
             class="st25"
             y="205.5"
             x="225.8" />
          <g
             id="g421">
            <polygon
               id="polygon409"
               points="247,215.2 247,186.8 220.3,186.8 220.3,218.9 243.8,218.9 "
               class="st2" />
            <g
               id="g419">
              <polygon
                 id="polygon411"
                 points="241.8,207.7 238.2,207.7 237.7,208.3 237.8,208.2 241.8,208.2 "
                 class="st26" />
              <g
                 id="g415">
                <path
                   id="path413"
                   d="m 233.2,210 c -4.3,0 -7.8,-3.5 -7.8,-7.8 0,-4.3 3.5,-7.8 7.8,-7.8 4.3,0 7.8,3.5 7.8,7.8 0,4.3 -3.5,7.8 -7.8,7.8 z m 1.9,-12.1 c 0,-1 -0.8,-1.9 -1.9,-1.9 -1,0 -1.9,0.8 -1.9,1.9 0,1 0.8,1.9 1.9,1.9 1,0 1.9,-0.8 1.9,-1.9 z m 0,8.9 c 0,-1 -0.8,-1.9 -1.9,-1.9 -1,0 -1.9,0.8 -1.9,1.9 0,1 0.8,1.9 1.9,1.9 1,0 1.9,-0.9 1.9,-1.9 z m -6,-6.3 c -1,0 -1.9,0.8 -1.9,1.9 0,1 0.8,1.9 1.9,1.9 1,0 1.9,-0.8 1.9,-1.9 0,-1.1 -0.9,-1.9 -1.9,-1.9 z m 8.7,0 c -1,0 -1.9,0.8 -1.9,1.9 0,1 0.8,1.9 1.9,1.9 1,0 1.9,-0.8 1.9,-1.9 0,-1.1 -0.9,-1.9 -1.9,-1.9 z"
                   class="st26" />
              </g>
              <path
                 id="path417"
                 d="m 234.4,202.2 c 0,-0.6 -0.5,-1.2 -1.2,-1.2 -0.7,0 -1.2,0.5 -1.2,1.2 0,0.7 0.5,1.2 1.2,1.2 0.6,0 1.2,-0.6 1.2,-1.2 z"
                 class="st26" />
            </g>
          </g>
        </g>
      </g>
    </g>
    <g
       id="TABLET_2_">
      <g
         id="g476"
         class="st13">
        <g
           id="g430"
           class="st27">
          <path
             id="path428"
             d="m 350.2,320.3 c 0,0.3 -0.2,0.5 -0.5,0.5 h -2.9 c -0.3,0 -0.5,-0.2 -0.5,-0.5 v -3.1 c 0,-0.3 0.2,-0.5 0.5,-0.5 h 2.9 c 0.3,0 0.5,0.2 0.5,0.5 z"
             class="st20" />
        </g>
        <g
           id="g434"
           class="st27">
          <path
             id="path432"
             d="m 360.8,320.3 c 0,0.3 -0.2,0.5 -0.5,0.5 h -2.9 c -0.3,0 -0.5,-0.2 -0.5,-0.5 v -3.1 c 0,-0.3 0.2,-0.5 0.5,-0.5 h 2.9 c 0.3,0 0.5,0.2 0.5,0.5 z"
             class="st16" />
        </g>
        <g
           id="g438"
           class="st27">
          <path
             id="path436"
             d="m 371.7,320.3 c 0,0.3 -0.2,0.5 -0.5,0.5 h -2.9 c -0.3,0 -0.5,-0.2 -0.5,-0.5 v -3.1 c 0,-0.3 0.2,-0.5 0.5,-0.5 h 2.9 c 0.3,0 0.5,0.2 0.5,0.5 z"
             class="st18" />
        </g>
        <g
           id="g442"
           class="st27">
          <path
             id="path440"
             d="m 350.2,334.6 c 0,0.3 -0.2,0.5 -0.5,0.5 h -2.9 c -0.3,0 -0.5,-0.2 -0.5,-0.5 v -3.1 c 0,-0.3 0.2,-0.5 0.5,-0.5 h 2.9 c 0.3,0 0.5,0.2 0.5,0.5 z"
             class="st19" />
        </g>
        <g
           id="g446"
           class="st27">
          <path
             id="path444"
             d="m 360.8,334.6 c 0,0.3 -0.2,0.5 -0.5,0.5 h -2.9 c -0.3,0 -0.5,-0.2 -0.5,-0.5 v -3.1 c 0,-0.3 0.2,-0.5 0.5,-0.5 h 2.9 c 0.3,0 0.5,0.2 0.5,0.5 z"
             class="st16" />
        </g>
        <g
           id="g450"
           class="st27">
          <path
             id="path448"
             d="m 371.7,334.6 c 0,0.3 -0.2,0.5 -0.5,0.5 h -2.9 c -0.3,0 -0.5,-0.2 -0.5,-0.5 v -3.1 c 0,-0.3 0.2,-0.5 0.5,-0.5 h 2.9 c 0.3,0 0.5,0.2 0.5,0.5 z"
             class="st14" />
        </g>
        <g
           id="g454"
           class="st27">
          <path
             id="path452"
             d="m 350.2,349.7 c 0,0.3 -0.2,0.5 -0.5,0.5 h -2.9 c -0.3,0 -0.5,-0.2 -0.5,-0.5 v -3.1 c 0,-0.3 0.2,-0.5 0.5,-0.5 h 2.9 c 0.3,0 0.5,0.2 0.5,0.5 z"
             class="st20" />
        </g>
        <g
           id="g458"
           class="st27">
          <path
             id="path456"
             d="m 360.8,349.7 c 0,0.3 -0.2,0.5 -0.5,0.5 h -2.9 c -0.3,0 -0.5,-0.2 -0.5,-0.5 v -3.1 c 0,-0.3 0.2,-0.5 0.5,-0.5 h 2.9 c 0.3,0 0.5,0.2 0.5,0.5 z"
             class="st14" />
        </g>
        <g
           id="g462"
           class="st27">
          <path
             id="path460"
             d="m 371.7,349.7 c 0,0.3 -0.2,0.5 -0.5,0.5 h -2.9 c -0.3,0 -0.5,-0.2 -0.5,-0.5 v -3.1 c 0,-0.3 0.2,-0.5 0.5,-0.5 h 2.9 c 0.3,0 0.5,0.2 0.5,0.5 z"
             class="st15" />
        </g>
        <g
           id="g466"
           class="st27">
          <path
             id="path464"
             d="m 350.2,364.1 c 0,0.3 -0.2,0.5 -0.5,0.5 h -2.9 c -0.3,0 -0.5,-0.2 -0.5,-0.5 V 361 c 0,-0.3 0.2,-0.5 0.5,-0.5 h 2.9 c 0.3,0 0.5,0.2 0.5,0.5 z"
             class="st17" />
        </g>
        <g
           id="g470"
           class="st27">
          <path
             id="path468"
             d="m 360.8,364.1 c 0,0.3 -0.2,0.5 -0.5,0.5 h -2.9 c -0.3,0 -0.5,-0.2 -0.5,-0.5 V 361 c 0,-0.3 0.2,-0.5 0.5,-0.5 h 2.9 c 0.3,0 0.5,0.2 0.5,0.5 z"
             class="st19" />
        </g>
        <g
           id="g474"
           class="st27">
          <path
             id="path472"
             d="m 371.7,364.1 c 0,0.3 -0.2,0.5 -0.5,0.5 h -2.9 c -0.3,0 -0.5,-0.2 -0.5,-0.5 V 361 c 0,-0.3 0.2,-0.5 0.5,-0.5 h 2.9 c 0.3,0 0.5,0.2 0.5,0.5 z"
             class="st20" />
        </g>
      </g>
      <g
         id="g482">
        <path
           id="path478"
           d="m 380.2,378.2 c 0,2.6 -1.2,4 -3.5,4 h -56.1 c -2.3,0 -3.5,-1.4 -3.5,-4 v -79.8 c 0,-2.6 1.2,-4 3.5,-4 h 56.1 c 2.3,0 3.5,1.4 3.5,4 z"
           class="st1" />
        <rect
           id="rect480"
           height="70.300003"
           width="55.099998"
           class="st2"
           y="301.5"
           x="321.10001" />
      </g>
      <g
         id="g634">
        <rect
           id="rect484"
           height="62.700001"
           width="21.299999"
           class="st3"
           y="309.39999"
           x="320.79999" />
        <rect
           id="rect486"
           height="17.4"
           width="21.200001"
           class="st1"
           y="324.89999"
           x="320.89999" />
        <rect
           id="rect488"
           height="8.3000002"
           width="55.400002"
           class="st1"
           y="301.29999"
           x="320.79999" />
        <g
           id="g496">
          <rect
             id="rect490"
             height="0.5"
             width="3.4000001"
             class="st28"
             y="306.20001"
             x="370" />
          <rect
             id="rect492"
             height="0.5"
             width="3.4000001"
             class="st28"
             y="304.70001"
             x="370" />
          <rect
             id="rect494"
             height="0.5"
             width="3.4000001"
             class="st28"
             y="303.20001"
             x="370" />
        </g>
        <path
           id="path498"
           d="m 332.4,316.5 c 0,-2.5 -2.1,-4.6 -4.6,-4.6 -2.5,0 -4.6,2.1 -4.6,4.6 0,2.5 2.1,4.6 4.6,4.6 2.5,0 4.6,-2.1 4.6,-4.6 z"
           class="st4" />
        <rect
           id="rect500"
           height="0.5"
           width="3.0999999"
           class="st4"
           y="317"
           x="333.70001" />
        <rect
           id="rect502"
           height="0.5"
           width="3.9000001"
           class="st5"
           y="326.70001"
           x="329.70001" />
        <rect
           id="rect504"
           height="0.5"
           width="1"
           class="st5"
           y="326.70001"
           x="335.20001" />
        <rect
           id="rect506"
           height="0.5"
           width="1"
           class="st5"
           y="326.70001"
           x="336.70001" />
        <rect
           id="rect508"
           height="0.5"
           width="3.9000001"
           class="st5"
           y="323.79999"
           x="329.39999" />
        <rect
           id="rect510"
           height="0.5"
           width="1"
           class="st5"
           y="323.79999"
           x="335" />
        <rect
           id="rect512"
           height="0.5"
           width="1"
           class="st5"
           y="323.79999"
           x="336.5" />
        <rect
           id="rect514"
           height="0.80000001"
           width="4.1999998"
           class="st4"
           y="314.89999"
           x="333.70001" />
        <rect
           id="rect516"
           height="0.5"
           width="2.7"
           class="st4"
           y="317"
           x="337.79999" />
        <rect
           id="rect518"
           height="0.5"
           width="3.9000001"
           class="st5"
           y="329.39999"
           x="329.70001" />
        <rect
           id="rect520"
           height="0.5"
           width="1"
           class="st5"
           y="329.39999"
           x="335.20001" />
        <rect
           id="rect522"
           height="0.5"
           width="1"
           class="st5"
           y="329.39999"
           x="336.70001" />
        <rect
           id="rect524"
           height="0.5"
           width="3.9000001"
           class="st5"
           y="332"
           x="329.70001" />
        <rect
           id="rect526"
           height="0.5"
           width="1"
           class="st5"
           y="332"
           x="335.20001" />
        <rect
           id="rect528"
           height="0.5"
           width="1"
           class="st5"
           y="332"
           x="336.70001" />
        <path
           id="path530"
           d="m 325.5,336.5 h 14 c 0.1,0 0.1,-0.1 0.1,-0.1 v -1.1 c 0,-0.1 -0.1,-0.1 -0.1,-0.1 h -14 c -0.1,0 -0.1,0.1 -0.1,0.1 v 1.1 c 0,0 0,0.1 0.1,0.1 z"
           class="st4" />
        <path
           id="path532"
           d="m 325.4,336.5 h 4.6 c 0,0 0.1,0 0.1,-0.1 v -1.2 c 0,0 0,-0.1 -0.1,-0.1 h -4.6 c 0,0 -0.1,0 -0.1,0.1 l 0.1,1.3 c 0,-0.1 0,0 0,0 z"
           class="st7" />
        <g
           id="g548">
          <path
             id="path534"
             d="m 329,314.9 c 0,1 0,2 -0.8,2 -0.3,0 -1,-0.1 -1.2,-0.3 -0.4,-0.3 -0.4,-0.9 -0.4,-1.6 0,-1 0.4,-1.5 1.1,-1.5 0.8,0.1 1.3,0.4 1.3,1.4 z"
             class="st8" />
          <path
             id="path536"
             d="m 327,315.4 c 0,0.3 -0.2,0.6 -0.3,0.6 -0.2,0 -0.3,-0.3 -0.3,-0.6 0,-0.3 0.2,-0.6 0.3,-0.6 0.1,0 0.3,0.2 0.3,0.6 z"
             class="st8" />
          <polygon
             id="polygon538"
             points="328.6,315.6 328.5,314.2 329,314.2 329.1,315.6 "
             class="st8" />
          <path
             id="path540"
             d="m 328.7,314.9 c 0,-0.1 -0.1,-0.2 -0.2,-0.2 -0.1,0 -0.2,0.1 -0.2,0.2 0,0.1 0.1,0.2 0.2,0.2 0.1,0 0.2,-0.1 0.2,-0.2 z"
             class="st9" />
          <path
             id="path542"
             d="m 328.8,314.2 h -0.7 c 0,0 -0.9,-0.1 -0.9,0.2 0,0.3 -0.1,0.3 -0.1,0.4 0.1,0.3 0,0.4 0,0.4 h -0.3 c 0,0 0.1,-0.4 -0.1,-0.4 -0.2,-0.1 -0.3,0 -0.3,0.1 0.1,-0.5 -0.1,-1.5 0.8,-1.5 0.9,0 1.4,-0.1 1.7,-0.1 0.3,0.1 0.6,0.8 -0.1,0.9 z"
             class="st9" />
          <path
             id="path544"
             d="m 325.4,318.8 h 4.8 c 0,-0.9 -0.7,-1.7 -1.7,-1.7 H 327 c -0.9,0 -1.6,0.8 -1.6,1.7 z"
             class="st9" />
          <polygon
             id="polygon546"
             points="328.2,317.2 328.2,316.4 327,316.4 327,317.2 327.8,317.9 "
             class="st8" />
        </g>
        <g
           id="g552">
          <path
             id="path550"
             d="m 352.6,322.2 c 0,0.7 -0.5,1.2 -1.1,1.2 H 345 c -0.6,0 -1.1,-0.5 -1.1,-1.2 v -6.9 c 0,-0.7 0.5,-1.2 1.1,-1.2 h 6.5 c 0.6,0 1.1,0.5 1.1,1.2 z"
             class="st4" />
        </g>
        <rect
           id="rect554"
           height="0.89999998"
           width="6"
           class="st4"
           y="324.39999"
           x="345" />
        <g
           id="g558">
          <path
             id="path556"
             d="m 363.3,322.2 c 0,0.7 -0.5,1.2 -1.1,1.2 h -6.5 c -0.6,0 -1.1,-0.5 -1.1,-1.2 v -6.9 c 0,-0.7 0.5,-1.2 1.1,-1.2 h 6.5 c 0.6,0 1.1,0.5 1.1,1.2 z"
             class="st4" />
        </g>
        <rect
           id="rect560"
           height="0.89999998"
           width="6"
           class="st4"
           y="324.39999"
           x="355.60001" />
        <g
           id="g564">
          <path
             id="path562"
             d="m 374.1,322.2 c 0,0.7 -0.5,1.2 -1.1,1.2 h -6.5 c -0.6,0 -1.1,-0.5 -1.1,-1.2 v -6.9 c 0,-0.7 0.5,-1.2 1.1,-1.2 h 6.5 c 0.6,0 1.1,0.5 1.1,1.2 z"
             class="st4" />
        </g>
        <rect
           id="rect566"
           height="0.89999998"
           width="6"
           class="st4"
           y="324.39999"
           x="366.5" />
        <g
           id="g570">
          <path
             id="path568"
             d="m 352.6,336.6 c 0,0.7 -0.5,1.2 -1.1,1.2 H 345 c -0.6,0 -1.1,-0.5 -1.1,-1.2 v -6.9 c 0,-0.7 0.5,-1.2 1.1,-1.2 h 6.5 c 0.6,0 1.1,0.5 1.1,1.2 z"
             class="st4" />
        </g>
        <rect
           id="rect572"
           height="0.89999998"
           width="6"
           class="st4"
           y="338.79999"
           x="345" />
        <g
           id="g576">
          <path
             id="path574"
             d="m 363.3,336.6 c 0,0.7 -0.5,1.2 -1.1,1.2 h -6.5 c -0.6,0 -1.1,-0.5 -1.1,-1.2 v -6.9 c 0,-0.7 0.5,-1.2 1.1,-1.2 h 6.5 c 0.6,0 1.1,0.5 1.1,1.2 z"
             class="st4" />
        </g>
        <rect
           id="rect578"
           height="0.89999998"
           width="6"
           class="st4"
           y="338.79999"
           x="355.60001" />
        <g
           id="g582">
          <path
             id="path580"
             d="m 374.1,336.6 c 0,0.7 -0.5,1.2 -1.1,1.2 h -6.5 c -0.6,0 -1.1,-0.5 -1.1,-1.2 v -6.9 c 0,-0.7 0.5,-1.2 1.1,-1.2 h 6.5 c 0.6,0 1.1,0.5 1.1,1.2 z"
             class="st4" />
        </g>
        <rect
           id="rect584"
           height="0.89999998"
           width="6"
           class="st4"
           y="338.79999"
           x="366.5" />
        <g
           id="g588">
          <path
             id="path586"
             d="m 352.6,352.1 c 0,0.7 -0.5,1.2 -1.1,1.2 H 345 c -0.6,0 -1.1,-0.5 -1.1,-1.2 v -6.9 c 0,-0.7 0.5,-1.2 1.1,-1.2 h 6.5 c 0.6,0 1.1,0.5 1.1,1.2 z"
             class="st4" />
        </g>
        <rect
           id="rect590"
           height="0.89999998"
           width="6"
           class="st4"
           y="354.29999"
           x="345" />
        <g
           id="g594">
          <path
             id="path592"
             d="m 363.3,352.1 c 0,0.7 -0.5,1.2 -1.1,1.2 h -6.5 c -0.6,0 -1.1,-0.5 -1.1,-1.2 v -6.9 c 0,-0.7 0.5,-1.2 1.1,-1.2 h 6.5 c 0.6,0 1.1,0.5 1.1,1.2 z"
             class="st4" />
        </g>
        <rect
           id="rect596"
           height="0.89999998"
           width="6"
           class="st4"
           y="354.29999"
           x="355.60001" />
        <g
           id="g600">
          <path
             id="path598"
             d="m 374.1,352.1 c 0,0.7 -0.5,1.2 -1.1,1.2 h -6.5 c -0.6,0 -1.1,-0.5 -1.1,-1.2 v -6.9 c 0,-0.7 0.5,-1.2 1.1,-1.2 h 6.5 c 0.6,0 1.1,0.5 1.1,1.2 z"
             class="st4" />
        </g>
        <rect
           id="rect602"
           height="0.89999998"
           width="6"
           class="st4"
           y="354.29999"
           x="366.5" />
        <g
           id="g606">
          <path
             id="path604"
             d="m 352.6,366.4 c 0,0.7 -0.5,1.2 -1.1,1.2 H 345 c -0.6,0 -1.1,-0.5 -1.1,-1.2 v -6.9 c 0,-0.7 0.5,-1.2 1.1,-1.2 h 6.5 c 0.6,0 1.1,0.5 1.1,1.2 z"
             class="st4" />
        </g>
        <rect
           id="rect608"
           height="0.89999998"
           width="6"
           class="st4"
           y="368.60001"
           x="345" />
        <g
           id="g612">
          <path
             id="path610"
             d="m 363.3,366.4 c 0,0.7 -0.5,1.2 -1.1,1.2 h -6.5 c -0.6,0 -1.1,-0.5 -1.1,-1.2 v -6.9 c 0,-0.7 0.5,-1.2 1.1,-1.2 h 6.5 c 0.6,0 1.1,0.5 1.1,1.2 z"
             class="st4" />
        </g>
        <rect
           id="rect614"
           height="0.89999998"
           width="6"
           class="st4"
           y="368.60001"
           x="355.60001" />
        <g
           id="g618">
          <path
             id="path616"
             d="m 374.1,366.4 c 0,0.7 -0.5,1.2 -1.1,1.2 h -6.5 c -0.6,0 -1.1,-0.5 -1.1,-1.2 v -6.9 c 0,-0.7 0.5,-1.2 1.1,-1.2 h 6.5 c 0.6,0 1.1,0.5 1.1,1.2 z"
             class="st4" />
        </g>
        <rect
           id="rect620"
           height="0.89999998"
           width="6"
           class="st4"
           y="368.60001"
           x="366.5" />
        <rect
           id="rect622"
           height="0.60000002"
           width="6.4000001"
           class="st4"
           y="310.10001"
           x="368.89999" />
        <rect
           id="rect624"
           height="0.60000002"
           width="4.1999998"
           class="st4"
           y="310.10001"
           x="364.20001" />
        <rect
           id="rect626"
           height="0.60000002"
           width="4.1999998"
           class="st4"
           y="310.10001"
           x="344.79999" />
        <rect
           id="rect628"
           height="1.8"
           width="8"
           class="st22"
           y="305"
           x="334.60001" />
        <g
           id="g632">
          <path
             id="path630"
             d="m 330,304.1 v 0 c -0.4,-0.9 -1.3,-1.5 -2.3,-1.5 -1.3,0 -2.3,1 -2.4,2.2 -0.9,0.1 -1.5,0.8 -1.5,1.6 0,0.9 0.7,1.6 1.6,1.6 h 1.3 c 0.1,0 0.6,0 0.6,0 v -1.9 h -0.9 l 1.3,-1.6 1.3,1.6 h -0.9 v 1.9 h 1.7 c 1,0 1.9,-0.8 1.9,-1.9 V 306 c 0.2,-1.1 -0.6,-1.9 -1.7,-1.9 z"
             class="st4" />
        </g>
      </g>
    </g>
    <g
       id="PHONE_3_">
      <path
         id="path637"
         d="m 343.1,389.6 c 0,2.2 -1,3.4 -2.9,3.4 h -35.6 c -1.9,0 -2.9,-1.2 -2.9,-3.4 v -66.8 c 0,-2.2 1,-3.4 2.9,-3.4 h 35.6 c 1.9,0 2.9,1.2 2.9,3.4 z"
         class="st1" />
      <g
         id="g727">
        <rect
           id="rect639"
           height="58.799999"
           width="34.799999"
           class="st2"
           y="325.20001"
           x="305" />
        <rect
           id="rect641"
           height="28.700001"
           width="34.900002"
           class="st3"
           y="333.10001"
           x="305" />
        <rect
           id="rect643"
           height="8.1000004"
           width="34.900002"
           class="st1"
           y="325"
           x="305" />
        <g
           id="g651">
          <rect
             id="rect645"
             height="0.5"
             width="3.4000001"
             class="st28"
             y="330.10001"
             x="333.89999" />
          <rect
             id="rect647"
             height="0.5"
             width="3.4000001"
             class="st28"
             y="328.60001"
             x="333.89999" />
          <rect
             id="rect649"
             height="0.5"
             width="3.4000001"
             class="st28"
             y="327.10001"
             x="333.89999" />
        </g>
        <path
           id="path653"
           d="m 316.4,340.2 c 0,-2.5 -2.1,-4.6 -4.6,-4.6 -2.5,0 -4.6,2.1 -4.6,4.6 0,2.5 2.1,4.6 4.6,4.6 2.5,0 4.6,-2.1 4.6,-4.6 z"
           class="st4" />
        <rect
           id="rect655"
           height="0.5"
           width="3.0999999"
           class="st4"
           y="340.70001"
           x="317.60001" />
        <rect
           id="rect657"
           height="0.5"
           width="3.9000001"
           class="st5"
           y="350.39999"
           x="313.60001" />
        <rect
           id="rect659"
           height="0.5"
           width="1"
           class="st5"
           y="350.39999"
           x="319.20001" />
        <rect
           id="rect661"
           height="0.5"
           width="1"
           class="st5"
           y="350.39999"
           x="320.70001" />
        <rect
           id="rect663"
           height="0.5"
           width="3.9000001"
           class="st5"
           y="347.5"
           x="313.39999" />
        <rect
           id="rect665"
           height="0.5"
           width="1"
           class="st5"
           y="347.5"
           x="319" />
        <rect
           id="rect667"
           height="0.5"
           width="1"
           class="st5"
           y="347.5"
           x="320.5" />
        <rect
           id="rect669"
           height="0.80000001"
           width="4.1999998"
           class="st4"
           y="338.60001"
           x="317.60001" />
        <rect
           id="rect671"
           height="0.5"
           width="2.7"
           class="st4"
           y="340.70001"
           x="321.79999" />
        <rect
           id="rect673"
           height="0.5"
           width="3.9000001"
           class="st5"
           y="353.10001"
           x="313.60001" />
        <rect
           id="rect675"
           height="0.5"
           width="1"
           class="st5"
           y="353.10001"
           x="319.20001" />
        <rect
           id="rect677"
           height="0.5"
           width="1"
           class="st5"
           y="353.10001"
           x="320.70001" />
        <rect
           id="rect679"
           height="0.5"
           width="3.9000001"
           class="st5"
           y="355.70001"
           x="313.60001" />
        <rect
           id="rect681"
           height="0.5"
           width="1"
           class="st5"
           y="355.70001"
           x="319.20001" />
        <rect
           id="rect683"
           height="0.5"
           width="1"
           class="st5"
           y="355.70001"
           x="320.70001" />
        <path
           id="path685"
           d="m 309.5,360.2 h 14 c 0.1,0 0.1,-0.1 0.1,-0.1 V 359 c 0,-0.1 -0.1,-0.1 -0.1,-0.1 h -14 c -0.1,0 -0.1,0.1 -0.1,0.1 v 1.1 c 0,0 0,0.1 0.1,0.1 z"
           class="st4" />
        <path
           id="path687"
           d="m 309.4,360.2 h 4.6 c 0,0 0.1,0 0.1,-0.1 v -1.2 c 0,0 0,-0.1 -0.1,-0.1 h -4.6 c 0,0 -0.1,0 -0.1,0.1 l 0.1,1.3 c 0,-0.1 0,0 0,0 z"
           class="st7" />
        <g
           id="g703">
          <path
             id="path689"
             d="m 313,338.6 c 0,1 0,2 -0.8,2 -0.3,0 -1,-0.1 -1.2,-0.3 -0.4,-0.3 -0.4,-0.9 -0.4,-1.6 0,-1 0.4,-1.5 1.1,-1.5 0.8,0.1 1.3,0.5 1.3,1.4 z"
             class="st8" />
          <path
             id="path691"
             d="m 311,339.1 c 0,0.3 -0.2,0.6 -0.3,0.6 -0.2,0 -0.3,-0.3 -0.3,-0.6 0,-0.3 0.2,-0.6 0.3,-0.6 0.1,0 0.3,0.2 0.3,0.6 z"
             class="st8" />
          <polygon
             id="polygon693"
             points="312.6,339.3 312.5,337.9 313,337.9 313.1,339.3 "
             class="st8" />
          <path
             id="path695"
             d="m 312.6,338.6 c 0,-0.1 -0.1,-0.2 -0.2,-0.2 -0.1,0 -0.2,0.1 -0.2,0.2 0,0.1 0.1,0.2 0.2,0.2 0.1,0 0.2,-0.1 0.2,-0.2 z"
             class="st9" />
          <path
             id="path697"
             d="m 312.8,338 h -0.7 c 0,0 -0.9,-0.1 -0.9,0.2 0,0.3 -0.1,0.3 -0.1,0.4 0.1,0.3 0,0.4 0,0.4 h -0.3 c 0,0 0.1,-0.4 -0.1,-0.4 -0.2,-0.1 -0.3,0 -0.3,0.1 0.1,-0.5 -0.1,-1.5 0.8,-1.5 0.9,0 1.4,-0.1 1.7,-0.1 0.3,0 0.6,0.7 -0.1,0.9 z"
             class="st9" />
          <path
             id="path699"
             d="m 309.3,342.5 h 4.8 c 0,-0.9 -0.7,-1.7 -1.7,-1.7 H 311 c -0.9,0 -1.7,0.8 -1.7,1.7 z"
             class="st9" />
          <polygon
             id="polygon701"
             points="312.2,340.9 312.2,340.1 311,340.1 311,340.9 311.8,341.7 "
             class="st8" />
        </g>
        <g
           id="g707">
          <rect
             id="rect705"
             height="9.6000004"
             width="9.8000002"
             class="st4"
             y="366.89999"
             x="325.29999" />
        </g>
        <g
           id="g711">
          <polygon
             id="polygon709"
             points="310,376.3 310,366.9 319.6,366.9 319.6,376.3 "
             class="st4" />
        </g>
        <rect
           id="rect713"
           height="0.80000001"
           width="2.7"
           class="st11"
           y="378"
           x="310.39999" />
        <rect
           id="rect715"
           height="0.80000001"
           width="5.3000002"
           class="st11"
           y="378"
           x="313.89999" />
        <rect
           id="rect717"
           height="0.80000001"
           width="2.7"
           class="st11"
           y="378"
           x="325.70001" />
        <rect
           id="rect719"
           height="0.80000001"
           width="5.3000002"
           class="st11"
           y="378"
           x="329.20001" />
        <rect
           id="rect721"
           height="1.6"
           width="7.1999998"
           class="st22"
           y="328.79999"
           x="316.79999" />
        <g
           id="g725">
          <path
             id="path723"
             d="m 312.7,327.9 v 0 c -0.4,-0.8 -1.1,-1.3 -2.1,-1.3 -1.1,0 -2.1,0.9 -2.2,2 -0.8,0 -1.4,0.7 -1.4,1.5 0,0.8 0.7,1.5 1.5,1.5 h 1.2 c 0.1,0 0.6,0 0.6,0 v -1.7 h -0.8 l 1.2,-1.4 1.2,1.4 h -0.8 v 1.7 h 1.5 c 0.9,0 1.7,-0.8 1.7,-1.7 v -0.2 c 0.1,-1 -0.6,-1.8 -1.6,-1.8 z"
             class="st4" />
        </g>
      </g>
    </g>
  </g>
</svg>
